<?xml version="1.0" encoding="UTF-8" standalone="no"?>
<!-- Created with Inkscape (http://www.inkscape.org/) -->
<svg
   xmlns:dc="http://purl.org/dc/elements/1.1/"
   xmlns:cc="http://creativecommons.org/ns#"
   xmlns:rdf="http://www.w3.org/1999/02/22-rdf-syntax-ns#"
   xmlns:svg="http://www.w3.org/2000/svg"
   xmlns="http://www.w3.org/2000/svg"
   xmlns:sodipodi="http://sodipodi.sourceforge.net/DTD/sodipodi-0.dtd"
   xmlns:inkscape="http://www.inkscape.org/namespaces/inkscape"
   width="744.09448819"
   height="1052.3622047"
   id="svg2"
   sodipodi:version="0.32"
   inkscape:version="0.46"
   sodipodi:docname="Nemesis-Turret.svg"
   inkscape:output_extension="org.inkscape.output.svg.inkscape">
  <defs
     id="defs4">
    <inkscape:perspective
       sodipodi:type="inkscape:persp3d"
       inkscape:vp_x="0 : 526.18109 : 1"
       inkscape:vp_y="0 : 1000 : 0"
       inkscape:vp_z="744.09448 : 526.18109 : 1"
       inkscape:persp3d-origin="372.04724 : 350.78739 : 1"
       id="perspective10" />
  </defs>
  <sodipodi:namedview
     id="base"
     pagecolor="#ffffff"
     bordercolor="#666666"
     borderopacity="1.0"
     gridtolerance="10000"
     guidetolerance="10"
     objecttolerance="10"
     inkscape:pageopacity="0.0"
     inkscape:pageshadow="2"
     inkscape:zoom="0.7"
     inkscape:cx="-27.346902"
     inkscape:cy="160.4956"
     inkscape:document-units="px"
     inkscape:current-layer="layer1"
     showgrid="true"
     inkscape:window-width="834"
     inkscape:window-height="742"
     inkscape:window-x="514"
     inkscape:window-y="115"
     inkscape:snap-global="false">
    <inkscape:grid
       type="xygrid"
       id="grid2383" />
  </sodipodi:namedview>
  <metadata
     id="metadata7">
    <rdf:RDF>
      <cc:Work
         rdf:about="">
        <dc:format>image/svg+xml</dc:format>
        <dc:type
           rdf:resource="http://purl.org/dc/dcmitype/StillImage" />
      </cc:Work>
    </rdf:RDF>
  </metadata>
  <g
     inkscape:label="Layer 1"
     inkscape:groupmode="layer"
     id="layer1"
     style="display:inline">
    <path
       sodipodi:type="arc"
       style="fill:#47506e;fill-opacity:1;fill-rule:evenodd;stroke:#000000;stroke-width:1px;stroke-linecap:butt;stroke-linejoin:miter;stroke-opacity:1"
       id="bridge"
       sodipodi:cx="420"
       sodipodi:cy="512.36218"
       sodipodi:rx="180"
       sodipodi:ry="180"
       d="M 600,512.36218 A 180,180 0 1 1 240,512.36218 A 180,180 0 1 1 600,512.36218 z"
       transform="matrix(0.8815551,0,0,0.7230625,-368.82454,676.12015)"
       inkscape:label="#path2385" />
    <path
       style="fill:#808080;fill-rule:evenodd;stroke:#000000;stroke-width:1.4930371px;stroke-linecap:butt;stroke-linejoin:miter;stroke-opacity:1;display:inline"
       d="M -27.572931,722.53691 L -27.572931,935.63259 L 32.053867,935.63259 L 32.053867,722.53691 L -27.572931,722.53691 z"
       id="barrel"
       sodipodi:nodetypes="ccccc"
       inkscape:label="#path2962" />
    <path
       style="fill:#47506e;fill-opacity:1;fill-rule:evenodd;stroke:#000000;stroke-width:1.16070211px;stroke-linecap:butt;stroke-linejoin:miter;stroke-opacity:1;display:inline"
       d="M 32.770479,879.29862 L 74.749633,935.46106 L 32.770479,935.46106 L 32.770479,879.29862 z"
       id="rBase"
       sodipodi:nodetypes="cccc"
       inkscape:label="#path3734" />
    <path
       style="fill:#47506e;fill-opacity:1;fill-rule:evenodd;stroke:#000000;stroke-width:1.16070211px;stroke-linecap:butt;stroke-linejoin:miter;stroke-opacity:1;display:inline"
       d="M -28.540471,879.39595 L -70.51962,935.55839 L -28.540471,935.55839 L -28.540471,879.39595 z"
       id="lBase"
       sodipodi:nodetypes="cccc"
       inkscape:label="#path3736" />
    <path
       style="fill:#ff0000;fill-opacity:1;fill-rule:evenodd;stroke:#000000;stroke-width:1.8252486px;stroke-linecap:butt;stroke-linejoin:miter;stroke-opacity:1;display:inline"
       d="M -128.38436,1046.8532 L -140.21528,1056.6471 L -133.46701,1063.6246 L -140.77841,1069.728 L -90.588553,1119.849 L -84.019694,1114.4113 L -77.638235,1120.9025 L -65.461935,1109.9822 L -77.769003,1097.4632 L -83.832678,1102.4826 L -121.16059,1063.5804 L -116.10786,1059.3974 L -128.38436,1046.8532 z"
       id="path5204"
       sodipodi:nodetypes="ccccccccccccc" />
    <path
       style="fill:#ff0000;fill-rule:evenodd;stroke:#000000;stroke-width:1.97246468px;stroke-linecap:butt;stroke-linejoin:miter;stroke-opacity:1;display:inline"
       d="M -26.164069,749.87915 L 31.372564,749.87915 L 31.868574,722.86573 L -26.660077,723.36597 L -26.164069,749.87915 z"
       id="path5210"
       sodipodi:nodetypes="ccccc" />
    <path
       style="opacity:1;fill:none;fill-opacity:1;fill-rule:nonzero;stroke:none;stroke-width:0;stroke-linecap:round;stroke-miterlimit:4;stroke-dasharray:none;stroke-dashoffset:0;stroke-opacity:1;display:inline"
       d="M 84.508893,1119.2867 C 82.368863,1117.0722 82.386833,1116.9234 85.123893,1114.1949 C 87.431163,1111.8949 88.270113,1111.6384 89.742433,1112.7827 C 91.250563,1113.9548 93.668203,1112.0858 104.68976,1101.2272 C 116.61525,1089.478 117.66918,1088.0988 116.02286,1086.395 C 114.39419,1084.7097 114.51407,1084.2473 117.18984,1081.8931 C 120.03833,1079.387 120.30961,1079.354 123.24593,1081.1558 C 126.7945,1083.3332 127.04684,1084.4162 124.472,1086.4174 C 122.81813,1087.7028 122.82468,1088.0613 124.53439,1089.8306 C 126.30755,1091.6655 125.3879,1092.8758 111.72626,1106.6877 C 103.63111,1114.8719 96.582063,1121.5679 96.061673,1121.5679 C 95.541313,1121.5679 94.425393,1120.7891 93.581883,1119.8373 C 92.207363,1118.2862 91.836353,1118.2862 90.006293,1119.8373 C 87.398003,1122.0479 87.153473,1122.0234 84.508903,1119.2867 L 84.508893,1119.2867 z"
       id="path6398" />
    <path
       style="opacity:1;fill:none;fill-opacity:1;fill-rule:nonzero;stroke:none;stroke-width:0;stroke-linecap:round;stroke-miterlimit:4;stroke-dasharray:none;stroke-dashoffset:0;stroke-opacity:1;display:inline"
       d="M -21.492971,1140.2896 C -21.492971,1138.0203 -22.098754,1137.453 -24.521922,1137.453 C -27.175868,1137.453 -27.550874,1136.9613 -27.550874,1133.4817 C -27.550874,1129.6051 -27.435479,1129.5105 -22.704549,1129.5105 C -18.665951,1129.5105 -17.858224,1129.8887 -17.858224,1131.7798 C -17.858224,1133.9515 -17.050497,1134.0491 0.92128084,1134.0491 C 18.89307,1134.0491 19.700797,1133.9515 19.700797,1131.7798 C 19.700797,1129.8887 20.508524,1129.5105 24.547122,1129.5105 C 29.278052,1129.5105 29.393446,1129.6051 29.393446,1133.4817 C 29.393446,1136.9613 29.018441,1137.453 26.364495,1137.453 C 23.941326,1137.453 23.335543,1138.0203 23.335543,1140.2896 L 23.335543,1143.1263 L 0.92128084,1143.1263 L -21.492971,1143.1263 L -21.492971,1140.2896 z"
       id="path6400" />
    <path
       style="opacity:1;fill:none;fill-opacity:1;fill-rule:nonzero;stroke:none;stroke-width:0;stroke-linecap:round;stroke-miterlimit:4;stroke-dasharray:none;stroke-dashoffset:0;stroke-opacity:1;display:inline"
       d="M -92.042169,1120.8217 C -93.784412,1119.1901 -94.348491,1119.1456 -96.093397,1120.5018 C -97.882872,1121.8926 -98.564769,1121.5925 -101.90921,1117.9419 C -103.99299,1115.6675 -110.71623,1108.746 -116.84978,1102.5608 C -127.30648,1092.0162 -127.87445,1091.1959 -125.96033,1089.4034 C -124.21724,1087.771 -124.15283,1087.1409 -125.51957,1085.0914 C -126.91873,1082.9933 -126.79155,1082.3886 -124.50888,1080.2875 L -121.89759,1077.8837 L -119.00551,1081.2376 C -116.81696,1083.7755 -116.43887,1084.9585 -117.45118,1086.1009 C -118.46664,1087.2468 -118.07023,1088.3521 -115.80549,1090.6897 C -114.16462,1092.3833 -108.55661,1098.2425 -103.34324,1103.7104 C -95.600622,1111.8308 -93.548405,1113.4063 -92.139345,1112.3111 C -90.762093,1111.2406 -89.762054,1111.5811 -87.179376,1113.9998 L -83.944463,1117.0293 L -86.981283,1119.8732 C -89.818521,1122.5304 -90.151152,1122.5927 -92.042169,1120.8217 L -92.042169,1120.8217 z"
       id="path6402" />
    <path
       style="fill:#ff0000;fill-opacity:1;fill-rule:evenodd;stroke:#000000;stroke-width:1.8252486px;stroke-linecap:butt;stroke-linejoin:miter;stroke-opacity:1;display:inline"
       d="M -41.240991,1132.9048 L -42.58174,1148.2049 L -32.875305,1148.3037 L -33.667607,1157.7949 L 37.26106,1157.2841 L 38.005587,1148.7892 L 47.108245,1148.8075 L 47.889962,1132.4703 L 30.334675,1132.4348 L 29.647326,1140.2763 L -24.261681,1139.5142 L -23.689245,1132.9797 L -41.240991,1132.9048 z"
       id="path2498"
       sodipodi:nodetypes="ccccccccccccc" />
    <path
       style="fill:#ff0000;fill-opacity:1;fill-rule:evenodd;stroke:#000000;stroke-width:1.8252486px;stroke-linecap:butt;stroke-linejoin:miter;stroke-opacity:1;display:inline"
       d="M 72.051867,1119.2226 L 83.700652,1129.2324 L 89.440198,1121.4041 L 96.689172,1127.5816 L 137.62836,1069.6582 L 131.16078,1064.1004 L 136.48285,1056.7157 L 123.66555,1046.5553 L 113.4013,1060.7973 L 119.37138,1065.9277 L 87.321289,1109.2814 L 82.346111,1105.0065 L 72.051867,1119.2226 z"
       id="path2500"
       sodipodi:nodetypes="ccccccccccccc" />
  </g>
</svg>
