<?xml version="1.0" encoding="UTF-8" standalone="no"?>
<!-- Created with Inkscape (http://www.inkscape.org/) -->
<svg
   xmlns:dc="http://purl.org/dc/elements/1.1/"
   xmlns:cc="http://web.resource.org/cc/"
   xmlns:rdf="http://www.w3.org/1999/02/22-rdf-syntax-ns#"
   xmlns:svg="http://www.w3.org/2000/svg"
   xmlns="http://www.w3.org/2000/svg"
   xmlns:xlink="http://www.w3.org/1999/xlink"
   xmlns:sodipodi="http://sodipodi.sourceforge.net/DTD/sodipodi-0.dtd"
   xmlns:inkscape="http://www.inkscape.org/namespaces/inkscape"
   width="744.09448819"
   height="1052.3622047"
   id="svg2"
   sodipodi:version="0.32"
   inkscape:version="0.45.1"
   sodipodi:docbase="C:\Documents and Settings\suareza\My Documents\My Pictures"
   sodipodi:docname="paper avatar.svg"
   inkscape:output_extension="org.inkscape.output.svg.inkscape">
  <defs
     id="defs4">
    <linearGradient
       id="linearGradient3155">
      <stop
         style="stop-color:#626262;stop-opacity:1;"
         offset="0"
         id="stop3157" />
      <stop
         style="stop-color:#b5b5b5;stop-opacity:0;"
         offset="1"
         id="stop3159" />
    </linearGradient>
  </defs>
  <sodipodi:namedview
     id="base"
     pagecolor="#ffffff"
     bordercolor="#666666"
     borderopacity="1.0"
     gridtolerance="10000"
     guidetolerance="10"
     objecttolerance="10"
     inkscape:pageopacity="0.0"
     inkscape:pageshadow="2"
     inkscape:zoom="0.21007908"
     inkscape:cx="654.07746"
     inkscape:cy="313.49063"
     inkscape:document-units="px"
     inkscape:current-layer="layer1"
     inkscape:window-width="1024"
     inkscape:window-height="712"
     inkscape:window-x="0"
     inkscape:window-y="22"
     showguides="false"
     inkscape:guide-bbox="true">
    <sodipodi:guide
       orientation="horizontal"
       position="1039.8532"
       id="guide5098" />
    <sodipodi:guide
       orientation="horizontal"
       position="-10.097723"
       id="guide4166" />
    <sodipodi:guide
       orientation="horizontal"
       position="-420.73847"
       id="guide4168" />
    <sodipodi:guide
       orientation="vertical"
       position="-698.42585"
       id="guide4170" />
    <sodipodi:guide
       orientation="vertical"
       position="-742.18265"
       id="guide4172" />
    <sodipodi:guide
       orientation="vertical"
       position="271.3264"
       id="guide4174" />
    <sodipodi:guide
       orientation="vertical"
       position="311.78736"
       id="guide4176" />
    <sodipodi:guide
       orientation="horizontal"
       position="-217.77514"
       id="guide4178" />
    <sodipodi:guide
       orientation="horizontal"
       position="-346.29817"
       id="guide4180" />
    <sodipodi:guide
       orientation="horizontal"
       position="-524.80239"
       id="guide4182" />
    <sodipodi:guide
       orientation="vertical"
       position="138.04326"
       id="guide4191" />
    <sodipodi:guide
       orientation="vertical"
       position="174.93413"
       id="guide4193" />
    <sodipodi:guide
       orientation="vertical"
       position="620.7484"
       id="guide2200" />
    <sodipodi:guide
       orientation="vertical"
       position="685.75368"
       id="guide2202" />
    <sodipodi:guide
       orientation="vertical"
       position="709.10798"
       id="guide2204" />
    <sodipodi:guide
       orientation="vertical"
       position="774.50062"
       id="guide2206" />
  </sodipodi:namedview>
  <metadata
     id="metadata7">
    <rdf:RDF>
      <cc:Work
         rdf:about="">
        <dc:format>image/svg+xml</dc:format>
        <dc:type
           rdf:resource="http://purl.org/dc/dcmitype/StillImage" />
      </cc:Work>
    </rdf:RDF>
  </metadata>
  <g
     inkscape:label="Layer 1"
     inkscape:groupmode="layer"
     id="layer1">
    <image
       y="-381.93649"
       x="1289.8776"
       id="image4181"
       height="1199.8572"
       width="1232.2858"
       sodipodi:absref="C:\Documents and Settings\suareza\My Documents\My Pictures\Chmmr_Avatar_Icon.png"
       xlink:href="Chmmr_Avatar_Icon.png" />
    <g
       id="g2210"
       transform="translate(844.04516,-297.40595)">
      <rect
         y="54.170048"
         x="-1369.9487"
         height="163.85887"
         width="35.757763"
         id="rect16761"
         style="fill:#a92d00;fill-opacity:1;fill-rule:evenodd;stroke:#000000;stroke-width:5.76391077;stroke-miterlimit:4;stroke-dasharray:none;stroke-opacity:1" />
      <rect
         y="69.027443"
         x="-1389.5084"
         height="35.867668"
         width="73.170044"
         id="rect16763"
         style="fill:#b5b5b5;fill-opacity:1;fill-rule:evenodd;stroke:#000000;stroke-width:5;stroke-miterlimit:4;stroke-dasharray:none;stroke-opacity:1" />
      <rect
         y="111.65546"
         x="-1390.2257"
         height="35.867668"
         width="73.170044"
         id="rect16765"
         style="fill:#b5b5b5;fill-opacity:1;fill-rule:evenodd;stroke:#000000;stroke-width:5;stroke-miterlimit:4;stroke-dasharray:none;stroke-opacity:1" />
      <rect
         y="154.13123"
         x="-1389.5084"
         height="35.867668"
         width="73.170044"
         id="rect16767"
         style="fill:#b5b5b5;fill-opacity:1;fill-rule:evenodd;stroke:#000000;stroke-width:5;stroke-miterlimit:4;stroke-dasharray:none;stroke-opacity:1" />
      <path
         sodipodi:nodetypes="ccsc"
         id="path16769"
         d="M -1308.4925,106.20224 C -1312.2761,25.82684 -1301.1313,27.49434 -1257.5808,20.88444 C -1237.2076,17.36374 -1222.9563,5.48884 -1225.8727,51.97254 C -1230.0156,118.00424 -1278.8956,107.33654 -1308.4925,106.20224 z "
         style="fill:#dc1500;fill-opacity:1;fill-rule:evenodd;stroke:#000000;stroke-width:5;stroke-linecap:butt;stroke-linejoin:miter;stroke-miterlimit:4;stroke-dasharray:none;stroke-opacity:1" />
      <path
         sodipodi:nodetypes="ccsc"
         id="path16771"
         d="M -1397.6975,106.20224 C -1393.9139,25.82684 -1405.0587,27.49434 -1448.6091,20.88444 C -1468.9823,17.36374 -1483.2337,5.48884 -1480.3173,51.97254 C -1476.1744,118.00424 -1427.2943,107.33654 -1397.6975,106.20224 z "
         style="fill:#dc1500;fill-opacity:1;fill-rule:evenodd;stroke:#000000;stroke-width:5;stroke-linecap:butt;stroke-linejoin:miter;stroke-miterlimit:4;stroke-dasharray:none;stroke-opacity:1" />
      <path
         sodipodi:nodetypes="cczc"
         id="path16773"
         d="M -1388.5277,62.38061 L -1317.3646,62.39707 C -1317.3646,62.39707 -1316.8024,46.29187 -1353.3603,45.42459 C -1389.9221,44.55722 -1388.5277,62.38061 -1388.5277,62.38061 z "
         style="fill:#dc0200;fill-opacity:1;fill-rule:evenodd;stroke:#000000;stroke-width:4.90433693;stroke-linecap:butt;stroke-linejoin:miter;stroke-miterlimit:4;stroke-dasharray:none;stroke-opacity:1" />
      <path
         sodipodi:nodetypes="ccccccc"
         id="path16775"
         d="M -1391.6535,196.77553 L -1313.9756,196.79357 L -1301.2188,211.20462 L -1320.4081,205.55199 L -1385.4133,205.55199 L -1401.1812,211.20462 L -1391.6535,196.77553 z "
         style="fill:#aeaeae;fill-opacity:1;fill-rule:evenodd;stroke:#000000;stroke-width:5;stroke-linecap:butt;stroke-linejoin:miter;stroke-miterlimit:4;stroke-dasharray:none;stroke-opacity:1" />
      <path
         sodipodi:nodetypes="cccczc"
         id="path16777"
         d="M -1403.8737,219.90002 L -1385.3698,213.45258 L -1322.4471,213.60133 L -1297.4882,220.59275 C -1297.4882,220.59275 -1299.13,229.33202 -1350.859,229.81546 C -1402.5896,230.29893 -1403.8737,219.90002 -1403.8737,219.90002 z "
         style="fill:#fa1633;fill-opacity:1;fill-rule:evenodd;stroke:#000000;stroke-width:5;stroke-linecap:butt;stroke-linejoin:miter;stroke-miterlimit:4;stroke-dasharray:none;stroke-opacity:1" />
    </g>
    <g
       id="g2208"
       transform="matrix(1.7643641,0,0,1.7643641,-310.40272,-220.89319)">
      <g
         transform="matrix(0.556712,0,0,0.556712,503.47884,-77.149341)"
         id="g4184">
        <path
           style="fill:#b7b7b7;fill-opacity:1;fill-rule:evenodd;stroke:#000000;stroke-width:20;stroke-linecap:butt;stroke-linejoin:miter;stroke-miterlimit:4;stroke-dasharray:none;stroke-opacity:1"
           d="M -294.20045,354.26377 C -255.36905,589.32129 -171.86148,591.74883 -140.05791,355.47531 C -88.62931,621.18962 -51.78941,1061.9662 -51.78941,1061.9662 L 271.68282,1268.6279 L 271.40619,1061.4083 L 312.00441,1061.6064 L 311.98857,1472.7599 L 271.7037,1472.753 L 271.12966,1397.5892 L -82.941506,1576.9599 C -79.679306,1445.4967 -142.38699,1398.8886 -193.87909,1398.5351 C -246.20503,1398.176 -310.95889,1447.5614 -300.53249,1577.0172 L -508.39788,1482.9812 L -696.93259,1397.6902 L -697.41989,1471.7052 L -738.21796,1471.8574 L -739.90092,1061.4014 L -697.25047,1061.7059 L -696.74166,1268.734 L -445.52855,1114.5728 L -359.28274,1061.6466 C -359.28274,1061.6466 -339.35755,616.81291 -294.20045,354.26377 z "
           id="path2160"
           sodipodi:nodetypes="ccccccccccsccccccccccc" />
        <path
           sodipodi:type="arc"
           style="fill:#000080;fill-opacity:1;fill-rule:evenodd;stroke:#000000;stroke-width:4.5902648;stroke-miterlimit:4;stroke-dasharray:none;stroke-opacity:1"
           id="path2167"
           sodipodi:cx="1696.7885"
           sodipodi:cy="765.35223"
           sodipodi:rx="108.30565"
           sodipodi:ry="171.48395"
           d="M 1805.0941 765.35223 A 108.30565 171.48395 0 1 1  1588.4828,765.35223 A 108.30565 171.48395 0 1 1  1805.0941 765.35223 z"
           transform="matrix(1.0646063,0,0,1.1144882,-2008.2323,288.23163)" />
        <path
           sodipodi:type="arc"
           style="fill:#000080;fill-opacity:1;fill-rule:evenodd;stroke:#000000;stroke-width:4.5902648;stroke-miterlimit:4;stroke-dasharray:none;stroke-opacity:1"
           id="path3139"
           sodipodi:cx="1696.7885"
           sodipodi:cy="765.35223"
           sodipodi:rx="108.30565"
           sodipodi:ry="171.48395"
           d="M 1805.0941 765.35223 A 108.30565 171.48395 0 1 1  1588.4828,765.35223 A 108.30565 171.48395 0 1 1  1805.0941 765.35223 z"
           transform="matrix(0.8679387,0,0,1.0008034,-1685.3597,-110.32984)" />
      </g>
      <path
         sodipodi:nodetypes="ccccc"
         id="path4189"
         d="M 208.63462,578.60289 L 171.83898,601.18205 L 173.54126,721.12317 L 208.63462,737.01433 L 208.63462,578.60289 z "
         style="fill:#d40000;fill-rule:evenodd;stroke:none;stroke-width:1.09525156px;stroke-linecap:butt;stroke-linejoin:miter;stroke-opacity:1" />
      <path
         sodipodi:nodetypes="ccccc"
         id="path5164"
         d="M 258.81301,547.81165 L 221.92637,570.44596 L 222.32693,743.18401 L 258.80212,759.68294 L 258.81301,547.81165 z "
         style="fill:#d40000;fill-rule:evenodd;stroke:none;stroke-width:1.26111376px;stroke-linecap:butt;stroke-linejoin:miter;stroke-opacity:1" />
      <path
         sodipodi:nodetypes="ccccc"
         id="path5170"
         d="M 572.71245,583.30529 L 609.77808,606.97363 L 609.77776,717.29007 L 572.71417,736.05697 L 572.71245,583.30529 z "
         style="fill:#d40000;fill-rule:evenodd;stroke:none;stroke-width:1.09525156px;stroke-linecap:butt;stroke-linejoin:miter;stroke-opacity:1" />
      <path
         sodipodi:nodetypes="ccccc"
         id="path5172"
         d="M 522.63087,551.31598 L 559.50083,574.86051 L 559.47496,742.76918 L 522.63087,761.42968 L 522.63087,551.31598 z "
         style="fill:#d40000;fill-rule:evenodd;stroke:none;stroke-width:1.26111376px;stroke-linecap:butt;stroke-linejoin:miter;stroke-opacity:1" />
    </g>
    <g
       id="g2209"
       transform="translate(2471.7214,-305.58957)">
      <rect
         y="54.170048"
         x="-1369.9487"
         height="163.85887"
         width="35.757763"
         id="rect2211"
         style="fill:#a92d00;fill-opacity:1;fill-rule:evenodd;stroke:#000000;stroke-width:5.76391077;stroke-miterlimit:4;stroke-dasharray:none;stroke-opacity:1" />
      <rect
         y="69.027443"
         x="-1389.5084"
         height="35.867668"
         width="73.170044"
         id="rect2213"
         style="fill:#b5b5b5;fill-opacity:1;fill-rule:evenodd;stroke:#000000;stroke-width:5;stroke-miterlimit:4;stroke-dasharray:none;stroke-opacity:1" />
      <rect
         y="111.65546"
         x="-1390.2257"
         height="35.867668"
         width="73.170044"
         id="rect2215"
         style="fill:#b5b5b5;fill-opacity:1;fill-rule:evenodd;stroke:#000000;stroke-width:5;stroke-miterlimit:4;stroke-dasharray:none;stroke-opacity:1" />
      <rect
         y="154.13123"
         x="-1389.5084"
         height="35.867668"
         width="73.170044"
         id="rect2217"
         style="fill:#b5b5b5;fill-opacity:1;fill-rule:evenodd;stroke:#000000;stroke-width:5;stroke-miterlimit:4;stroke-dasharray:none;stroke-opacity:1" />
      <path
         sodipodi:nodetypes="ccsc"
         id="path2219"
         d="M -1308.4925,106.20224 C -1312.2761,25.82684 -1301.1313,27.49434 -1257.5808,20.88444 C -1237.2076,17.36374 -1222.9563,5.48884 -1225.8727,51.97254 C -1230.0156,118.00424 -1278.8956,107.33654 -1308.4925,106.20224 z "
         style="fill:#dc1500;fill-opacity:1;fill-rule:evenodd;stroke:#000000;stroke-width:5;stroke-linecap:butt;stroke-linejoin:miter;stroke-miterlimit:4;stroke-dasharray:none;stroke-opacity:1" />
      <path
         sodipodi:nodetypes="ccsc"
         id="path2221"
         d="M -1397.6975,106.20224 C -1393.9139,25.82684 -1405.0587,27.49434 -1448.6091,20.88444 C -1468.9823,17.36374 -1483.2337,5.48884 -1480.3173,51.97254 C -1476.1744,118.00424 -1427.2943,107.33654 -1397.6975,106.20224 z "
         style="fill:#dc1500;fill-opacity:1;fill-rule:evenodd;stroke:#000000;stroke-width:5;stroke-linecap:butt;stroke-linejoin:miter;stroke-miterlimit:4;stroke-dasharray:none;stroke-opacity:1" />
      <path
         sodipodi:nodetypes="cczc"
         id="path2223"
         d="M -1388.5277,62.38061 L -1317.3646,62.39707 C -1317.3646,62.39707 -1316.8024,46.29187 -1353.3603,45.42459 C -1389.9221,44.55722 -1388.5277,62.38061 -1388.5277,62.38061 z "
         style="fill:#dc0200;fill-opacity:1;fill-rule:evenodd;stroke:#000000;stroke-width:4.90433693;stroke-linecap:butt;stroke-linejoin:miter;stroke-miterlimit:4;stroke-dasharray:none;stroke-opacity:1" />
      <path
         sodipodi:nodetypes="ccccccc"
         id="path2225"
         d="M -1391.6535,196.77553 L -1313.9756,196.79357 L -1301.2188,211.20462 L -1320.4081,205.55199 L -1385.4133,205.55199 L -1401.1812,211.20462 L -1391.6535,196.77553 z "
         style="fill:#aeaeae;fill-opacity:1;fill-rule:evenodd;stroke:#000000;stroke-width:5;stroke-linecap:butt;stroke-linejoin:miter;stroke-miterlimit:4;stroke-dasharray:none;stroke-opacity:1" />
      <path
         sodipodi:nodetypes="cccczc"
         id="path2227"
         d="M -1403.8737,219.90002 L -1385.3698,213.45258 L -1322.4471,213.60133 L -1297.4882,220.59275 C -1297.4882,220.59275 -1299.13,229.33202 -1350.859,229.81546 C -1402.5896,230.29893 -1403.8737,219.90002 -1403.8737,219.90002 z "
         style="fill:#fa1633;fill-opacity:1;fill-rule:evenodd;stroke:#000000;stroke-width:5;stroke-linecap:butt;stroke-linejoin:miter;stroke-miterlimit:4;stroke-dasharray:none;stroke-opacity:1" />
    </g>
    <g
       id="g2229"
       transform="translate(1748.1843,1562.7546)">
      <rect
         y="54.170048"
         x="-1369.9487"
         height="163.85887"
         width="35.757763"
         id="rect2231"
         style="fill:#a92d00;fill-opacity:1;fill-rule:evenodd;stroke:#000000;stroke-width:5.76391077;stroke-miterlimit:4;stroke-dasharray:none;stroke-opacity:1" />
      <rect
         y="69.027443"
         x="-1389.5084"
         height="35.867668"
         width="73.170044"
         id="rect2233"
         style="fill:#b5b5b5;fill-opacity:1;fill-rule:evenodd;stroke:#000000;stroke-width:5;stroke-miterlimit:4;stroke-dasharray:none;stroke-opacity:1" />
      <rect
         y="111.65546"
         x="-1390.2257"
         height="35.867668"
         width="73.170044"
         id="rect2235"
         style="fill:#b5b5b5;fill-opacity:1;fill-rule:evenodd;stroke:#000000;stroke-width:5;stroke-miterlimit:4;stroke-dasharray:none;stroke-opacity:1" />
      <rect
         y="154.13123"
         x="-1389.5084"
         height="35.867668"
         width="73.170044"
         id="rect2237"
         style="fill:#b5b5b5;fill-opacity:1;fill-rule:evenodd;stroke:#000000;stroke-width:5;stroke-miterlimit:4;stroke-dasharray:none;stroke-opacity:1" />
      <path
         sodipodi:nodetypes="ccsc"
         id="path2239"
         d="M -1308.4925,106.20224 C -1312.2761,25.82684 -1301.1313,27.49434 -1257.5808,20.88444 C -1237.2076,17.36374 -1222.9563,5.48884 -1225.8727,51.97254 C -1230.0156,118.00424 -1278.8956,107.33654 -1308.4925,106.20224 z "
         style="fill:#dc1500;fill-opacity:1;fill-rule:evenodd;stroke:#000000;stroke-width:5;stroke-linecap:butt;stroke-linejoin:miter;stroke-miterlimit:4;stroke-dasharray:none;stroke-opacity:1" />
      <path
         sodipodi:nodetypes="ccsc"
         id="path2241"
         d="M -1397.6975,106.20224 C -1393.9139,25.82684 -1405.0587,27.49434 -1448.6091,20.88444 C -1468.9823,17.36374 -1483.2337,5.48884 -1480.3173,51.97254 C -1476.1744,118.00424 -1427.2943,107.33654 -1397.6975,106.20224 z "
         style="fill:#dc1500;fill-opacity:1;fill-rule:evenodd;stroke:#000000;stroke-width:5;stroke-linecap:butt;stroke-linejoin:miter;stroke-miterlimit:4;stroke-dasharray:none;stroke-opacity:1" />
      <path
         sodipodi:nodetypes="cczc"
         id="path2243"
         d="M -1388.5277,62.38061 L -1317.3646,62.39707 C -1317.3646,62.39707 -1316.8024,46.29187 -1353.3603,45.42459 C -1389.9221,44.55722 -1388.5277,62.38061 -1388.5277,62.38061 z "
         style="fill:#dc0200;fill-opacity:1;fill-rule:evenodd;stroke:#000000;stroke-width:4.90433693;stroke-linecap:butt;stroke-linejoin:miter;stroke-miterlimit:4;stroke-dasharray:none;stroke-opacity:1" />
      <path
         sodipodi:nodetypes="ccccccc"
         id="path2245"
         d="M -1391.6535,196.77553 L -1313.9756,196.79357 L -1301.2188,211.20462 L -1320.4081,205.55199 L -1385.4133,205.55199 L -1401.1812,211.20462 L -1391.6535,196.77553 z "
         style="fill:#aeaeae;fill-opacity:1;fill-rule:evenodd;stroke:#000000;stroke-width:5;stroke-linecap:butt;stroke-linejoin:miter;stroke-miterlimit:4;stroke-dasharray:none;stroke-opacity:1" />
      <path
         sodipodi:nodetypes="cccczc"
         id="path2247"
         d="M -1403.8737,219.90002 L -1385.3698,213.45258 L -1322.4471,213.60133 L -1297.4882,220.59275 C -1297.4882,220.59275 -1299.13,229.33202 -1350.859,229.81546 C -1402.5896,230.29893 -1403.8737,219.90002 -1403.8737,219.90002 z "
         style="fill:#fa1633;fill-opacity:1;fill-rule:evenodd;stroke:#000000;stroke-width:5;stroke-linecap:butt;stroke-linejoin:miter;stroke-miterlimit:4;stroke-dasharray:none;stroke-opacity:1" />
    </g>
  </g>
</svg>
