<?xml version="1.0" encoding="UTF-8" standalone="no"?>
<!-- Created with Inkscape (http://www.inkscape.org/) -->
<svg
   xmlns:dc="http://purl.org/dc/elements/1.1/"
   xmlns:cc="http://creativecommons.org/ns#"
   xmlns:rdf="http://www.w3.org/1999/02/22-rdf-syntax-ns#"
   xmlns:svg="http://www.w3.org/2000/svg"
   xmlns="http://www.w3.org/2000/svg"
   xmlns:sodipodi="http://sodipodi.sourceforge.net/DTD/sodipodi-0.dtd"
   xmlns:inkscape="http://www.inkscape.org/namespaces/inkscape"
   width="744.09448819"
   height="1052.3622047"
   id="svg2957"
   version="1.1"
   inkscape:version="0.46"
   sodipodi:docname="nemesis-turret.svg"
   sodipodi:version="0.32"
   inkscape:output_extension="org.inkscape.output.svg.inkscape">
  <defs
     id="defs2959">
    <inkscape:perspective
       sodipodi:type="inkscape:persp3d"
       inkscape:vp_x="0 : 526.18109 : 1"
       inkscape:vp_y="0 : 1000 : 0"
       inkscape:vp_z="744.09448 : 526.18109 : 1"
       inkscape:persp3d-origin="372.04724 : 350.78739 : 1"
       id="perspective2965" />
    <inkscape:perspective
       id="perspective2934"
       inkscape:persp3d-origin="0.5 : 0.33333333 : 1"
       inkscape:vp_z="1 : 0.5 : 1"
       inkscape:vp_y="0 : 1000 : 0"
       inkscape:vp_x="0 : 0.5 : 1"
       sodipodi:type="inkscape:persp3d" />
  </defs>
  <sodipodi:namedview
     id="base"
     pagecolor="#ffffff"
     bordercolor="#666666"
     borderopacity="1.0"
     inkscape:pageopacity="0.0"
     inkscape:pageshadow="2"
     inkscape:zoom="0.35"
     inkscape:cx="138.15219"
     inkscape:cy="623.711"
     inkscape:document-units="px"
     inkscape:current-layer="layer1"
     showgrid="true"
     inkscape:window-width="676"
     inkscape:window-height="677"
     inkscape:window-x="300"
     inkscape:window-y="9"
     inkscape:window-maximized="0">
    <inkscape:grid
       type="xygrid"
       id="grid2527" />
  </sodipodi:namedview>
  <metadata
     id="metadata2962">
    <rdf:RDF>
      <cc:Work
         rdf:about="">
        <dc:format>image/svg+xml</dc:format>
        <dc:type
           rdf:resource="http://purl.org/dc/dcmitype/StillImage" />
        <dc:title />
      </cc:Work>
    </rdf:RDF>
  </metadata>
  <g
     inkscape:label="Layer 1"
     inkscape:groupmode="layer"
     id="layer1">
    <path
       sodipodi:type="arc"
       style="fill:#1a1a1a;display:inline"
       id="hub"
       sodipodi:cx="904.08655"
       sodipodi:cy="270.50412"
       sodipodi:rx="116.16754"
       sodipodi:ry="117.1777"
       d="M 1020.2541,270.50412 A 116.16754,117.1777 0 1 1 787.91901,270.50412 A 116.16754,117.1777 0 1 1 1020.2541,270.50412 z"
       transform="matrix(0.9130435,0,0,0.862069,-719.40433,718.15371)"
       inkscape:label="#path2396" />
    <path
       style="fill:#1a1a1a;fill-opacity:1;fill-rule:evenodd;stroke:#000000;stroke-width:1.4930371px;stroke-linecap:butt;stroke-linejoin:miter;stroke-opacity:1;display:inline"
       d="M 86.308193,661.79252 L 85.593913,853.78898 L 130.9775,853.78898 L 130.9775,661.79252 C 123.48109,692.75112 100.0455,705.76803 86.308193,661.79252 z"
       id="barrel"
       sodipodi:nodetypes="ccccc"
       inkscape:label="#path2962" />
    <path
       style="fill:#800000"
       d="M 86.992283,683.90303 C 87.022273,674.46219 87.055733,666.72673 87.066633,666.71313 C 87.077543,666.69953 87.339343,667.36248 87.648423,668.18634 C 91.834323,679.34402 97.235453,686.84055 103.1382,689.68547 C 105.12951,690.64522 106.728,691.01593 108.85248,691.01069 C 111.03279,691.00531 112.49958,690.64735 114.675,689.58973 C 118.0829,687.93292 121.14208,685.01974 124.04551,680.66643 C 126.20851,677.42328 127.98903,673.77143 129.61767,669.23786 L 130.2271,667.54143 L 130.23176,684.30482 L 130.23641,701.06821 L 108.58708,701.06821 L 86.937753,701.06821 L 86.992283,683.90303 z"
       id="path2603" />
    <path
       sodipodi:type="arc"
       style="fill:#ff0000;fill-opacity:1;fill-rule:nonzero;stroke:#000000;stroke-width:3;stroke-linecap:round;stroke-linejoin:miter;stroke-miterlimit:4;stroke-dasharray:none;stroke-dashoffset:0;stroke-opacity:1"
       id="path3833-1-3"
       sodipodi:cx="575"
       sodipodi:cy="427.36218"
       sodipodi:rx="15"
       sodipodi:ry="15"
       d="M 590,427.36218 A 15,15 0 1 1 560,427.36218 A 15,15 0 1 1 590,427.36218 z"
       transform="matrix(0.6666667,0,0,0.6666667,-281.55305,747.51025)" />
    <path
       sodipodi:type="arc"
       style="fill:#ff0000;fill-opacity:1;fill-rule:nonzero;stroke:#000000;stroke-width:3;stroke-linecap:round;stroke-linejoin:miter;stroke-miterlimit:4;stroke-dasharray:none;stroke-dashoffset:0;stroke-opacity:1"
       id="path2612"
       sodipodi:cx="575"
       sodipodi:cy="427.36218"
       sodipodi:rx="15"
       sodipodi:ry="15"
       d="M 590,427.36218 A 15,15 0 1 1 560,427.36218 A 15,15 0 1 1 590,427.36218 z"
       transform="matrix(0.6666667,0,0,0.6666667,-238.69591,733.22454)" />
    <path
       sodipodi:type="arc"
       style="fill:#ff0000;fill-opacity:1;fill-rule:nonzero;stroke:#000000;stroke-width:3;stroke-linecap:round;stroke-linejoin:miter;stroke-miterlimit:4;stroke-dasharray:none;stroke-dashoffset:0;stroke-opacity:1"
       id="path2614"
       sodipodi:cx="575"
       sodipodi:cy="427.36218"
       sodipodi:rx="15"
       sodipodi:ry="15"
       d="M 590,427.36218 A 15,15 0 1 1 560,427.36218 A 15,15 0 1 1 590,427.36218 z"
       transform="matrix(0.6666667,0,0,0.6666667,-210.12447,705.3674)" />
    <path
       sodipodi:type="arc"
       style="fill:#ff0000;fill-opacity:1;fill-rule:nonzero;stroke:#000000;stroke-width:3;stroke-linecap:round;stroke-linejoin:miter;stroke-miterlimit:4;stroke-dasharray:none;stroke-dashoffset:0;stroke-opacity:1"
       id="path2616"
       sodipodi:cx="575"
       sodipodi:cy="427.36218"
       sodipodi:rx="15"
       sodipodi:ry="15"
       d="M 590,427.36218 A 15,15 0 1 1 560,427.36218 A 15,15 0 1 1 590,427.36218 z"
       transform="matrix(0.6666667,0,0,0.6666667,-322.98162,727.51025)" />
    <path
       sodipodi:type="arc"
       style="fill:#ff0000;fill-opacity:1;fill-rule:nonzero;stroke:#000000;stroke-width:3;stroke-linecap:round;stroke-linejoin:miter;stroke-miterlimit:4;stroke-dasharray:none;stroke-dashoffset:0;stroke-opacity:1"
       id="path2618"
       sodipodi:cx="575"
       sodipodi:cy="427.36218"
       sodipodi:rx="15"
       sodipodi:ry="15"
       d="M 590,427.36218 A 15,15 0 1 1 560,427.36218 A 15,15 0 1 1 590,427.36218 z"
       transform="matrix(0.6666667,0,0,0.6666667,-350.12447,694.65311)" />
    <path
       sodipodi:type="arc"
       style="fill:#ff0000;fill-opacity:1;fill-rule:nonzero;stroke:#000000;stroke-width:3;stroke-linecap:round;stroke-linejoin:miter;stroke-miterlimit:4;stroke-dasharray:none;stroke-dashoffset:0;stroke-opacity:1"
       id="path2620"
       sodipodi:cx="575"
       sodipodi:cy="427.36218"
       sodipodi:rx="15"
       sodipodi:ry="15"
       d="M 590,427.36218 A 15,15 0 1 1 560,427.36218 A 15,15 0 1 1 590,427.36218 z"
       transform="matrix(0.6666667,0,0,0.6666667,-199.41019,660.36739)" />
    <path
       sodipodi:type="arc"
       style="fill:#ff0000;fill-opacity:1;fill-rule:nonzero;stroke:#000000;stroke-width:3;stroke-linecap:round;stroke-linejoin:miter;stroke-miterlimit:4;stroke-dasharray:none;stroke-dashoffset:0;stroke-opacity:1"
       id="path2622"
       sodipodi:cx="575"
       sodipodi:cy="427.36218"
       sodipodi:rx="15"
       sodipodi:ry="15"
       d="M 590,427.36218 A 15,15 0 1 1 560,427.36218 A 15,15 0 1 1 590,427.36218 z"
       transform="matrix(0.6666667,0,0,0.6666667,-215.12447,616.08167)" />
    <path
       sodipodi:type="arc"
       style="fill:#ff0000;fill-opacity:1;fill-rule:nonzero;stroke:#000000;stroke-width:3;stroke-linecap:round;stroke-linejoin:miter;stroke-miterlimit:4;stroke-dasharray:none;stroke-dashoffset:0;stroke-opacity:1"
       id="path2624"
       sodipodi:cx="575"
       sodipodi:cy="427.36218"
       sodipodi:rx="15"
       sodipodi:ry="15"
       d="M 590,427.36218 A 15,15 0 1 1 560,427.36218 A 15,15 0 1 1 590,427.36218 z"
       transform="matrix(0.6666667,0,0,0.6666667,-254.41019,594.65311)" />
    <path
       sodipodi:type="arc"
       style="fill:#ff0000;fill-opacity:1;fill-rule:nonzero;stroke:#000000;stroke-width:3;stroke-linecap:round;stroke-linejoin:miter;stroke-miterlimit:4;stroke-dasharray:none;stroke-dashoffset:0;stroke-opacity:1"
       id="path2626"
       sodipodi:cx="575"
       sodipodi:cy="427.36218"
       sodipodi:rx="15"
       sodipodi:ry="15"
       d="M 590,427.36218 A 15,15 0 1 1 560,427.36218 A 15,15 0 1 1 590,427.36218 z"
       transform="matrix(0.6666667,0,0,0.6666667,-357.26733,656.08167)" />
    <path
       sodipodi:type="arc"
       style="fill:#ff0000;fill-opacity:1;fill-rule:nonzero;stroke:#000000;stroke-width:3;stroke-linecap:round;stroke-linejoin:miter;stroke-miterlimit:4;stroke-dasharray:none;stroke-dashoffset:0;stroke-opacity:1"
       id="path2628"
       sodipodi:cx="575"
       sodipodi:cy="427.36218"
       sodipodi:rx="15"
       sodipodi:ry="15"
       d="M 590,427.36218 A 15,15 0 1 1 560,427.36218 A 15,15 0 1 1 590,427.36218 z"
       transform="matrix(0.6666667,0,0,0.6666667,-337.98162,621.79596)" />
    <path
       sodipodi:type="arc"
       style="fill:#ff0000;fill-opacity:1;fill-rule:nonzero;stroke:#000000;stroke-width:3;stroke-linecap:round;stroke-linejoin:miter;stroke-miterlimit:4;stroke-dasharray:none;stroke-dashoffset:0;stroke-opacity:1"
       id="path2630"
       sodipodi:cx="575"
       sodipodi:cy="427.36218"
       sodipodi:rx="15"
       sodipodi:ry="15"
       d="M 590,427.36218 A 15,15 0 1 1 560,427.36218 A 15,15 0 1 1 590,427.36218 z"
       transform="matrix(0.6666667,0,0,0.6666667,-302.98162,595.36738)" />
    <path
       style="fill:#1a1a1a;fill-opacity:1;fill-rule:evenodd;stroke:#000000;stroke-width:1px;stroke-linecap:butt;stroke-linejoin:miter;stroke-opacity:1"
       d="M 85.351733,817.23981 L 48.923163,866.16838 L 85.708873,852.23981 L 85.351733,817.23981 z"
       id="path2634" />
    <path
       style="fill:#1a1a1a;fill-opacity:1;fill-rule:evenodd;stroke:#000000;stroke-width:1px;stroke-linecap:butt;stroke-linejoin:miter;stroke-opacity:1"
       d="M 131.2945,817.77552 L 166.9147,868.64999 L 131.12593,852.77694 L 131.2945,817.77552 z"
       id="path3408"
       sodipodi:nodetypes="cccc" />
  </g>
</svg>
