<?xml version="1.0" encoding="UTF-8" standalone="no"?>
<!-- Created with Inkscape (http://www.inkscape.org/) -->
<svg
   xmlns:dc="http://purl.org/dc/elements/1.1/"
   xmlns:cc="http://creativecommons.org/ns#"
   xmlns:rdf="http://www.w3.org/1999/02/22-rdf-syntax-ns#"
   xmlns:svg="http://www.w3.org/2000/svg"
   xmlns="http://www.w3.org/2000/svg"
   xmlns:sodipodi="http://sodipodi.sourceforge.net/DTD/sodipodi-0.dtd"
   xmlns:inkscape="http://www.inkscape.org/namespaces/inkscape"
   width="744.09448819"
   height="1052.3622047"
   id="svg2504"
   sodipodi:version="0.32"
   inkscape:version="0.46"
   sodipodi:docname="nemesis-turret.svg"
   inkscape:output_extension="org.inkscape.output.svg.inkscape">
  <defs
     id="defs2506">
    <inkscape:perspective
       sodipodi:type="inkscape:persp3d"
       inkscape:vp_x="0 : 526.18109 : 1"
       inkscape:vp_y="0 : 1000 : 0"
       inkscape:vp_z="744.09448 : 526.18109 : 1"
       inkscape:persp3d-origin="372.04724 : 350.78739 : 1"
       id="perspective2512" />
  </defs>
  <sodipodi:namedview
     id="base"
     pagecolor="#ffffff"
     bordercolor="#666666"
     borderopacity="1.0"
     gridtolerance="10000"
     guidetolerance="10"
     objecttolerance="10"
     inkscape:pageopacity="0.0"
     inkscape:pageshadow="2"
     inkscape:zoom="0.35"
     inkscape:cx="497.46674"
     inkscape:cy="520"
     inkscape:document-units="px"
     inkscape:current-layer="layer1"
     showgrid="true"
     inkscape:window-width="640"
     inkscape:window-height="669"
     inkscape:window-x="861"
     inkscape:window-y="101">
    <inkscape:grid
       type="xygrid"
       id="grid2514" />
  </sodipodi:namedview>
  <metadata
     id="metadata2509">
    <rdf:RDF>
      <cc:Work
         rdf:about="">
        <dc:format>image/svg+xml</dc:format>
        <dc:type
           rdf:resource="http://purl.org/dc/dcmitype/StillImage" />
      </cc:Work>
    </rdf:RDF>
  </metadata>
  <g
     inkscape:label="Layer 1"
     inkscape:groupmode="layer"
     id="layer1">
    <circle
       cx="0"
       cy="0"
       r="180"
       id="bridge"
       style="fill:#464a71;fill-opacity:1;stroke:#000000;stroke-opacity:1;display:inline"
       sodipodi:cx="0"
       sodipodi:cy="0"
       sodipodi:rx="180"
       sodipodi:ry="180"
       transform="matrix(0.7611279,0,0,0.5389765,379.8915,517.88891)" />
    <path
       style="fill:#333333;fill-rule:evenodd;stroke:#000000;stroke-width:1.4930371px;stroke-linecap:butt;stroke-linejoin:miter;stroke-opacity:1;display:inline"
       d="M 356.0161,312.19092 L 356.0161,427.04451 L 401.3997,427.04451 L 401.3997,312.19092 L 356.0161,312.19092 z"
       id="barrel"
       sodipodi:nodetypes="ccccc"
       inkscape:label="#path2962" />
    <path
       style="opacity:1;fill:none;fill-opacity:1;fill-rule:nonzero;stroke:none;stroke-width:0;stroke-linecap:round;stroke-miterlimit:4;stroke-dasharray:none;stroke-dashoffset:0;stroke-opacity:1;display:inline"
       d="M 442.0389,571.40214 C 440.4101,570.20858 440.4238,570.12837 442.507,568.65778 C 444.2632,567.41813 444.9017,567.27988 446.0223,567.89663 C 447.1702,568.52837 449.0103,567.52102 457.3992,561.66849 C 466.476,555.33595 467.2782,554.59259 466.0251,553.67428 C 464.7855,552.76594 464.8767,552.51672 466.9133,551.24787 C 469.0814,549.89714 469.2879,549.87935 471.5228,550.85048 C 474.2237,552.02404 474.4158,552.60775 472.456,553.68636 C 471.1972,554.37916 471.2022,554.57238 472.5035,555.52599 C 473.8531,556.51496 473.1531,557.16728 462.7548,564.61158 C 456.5934,569.02266 451.2282,572.63165 450.8321,572.63165 C 450.436,572.63165 449.5867,572.2119 448.9446,571.6989 C 447.8985,570.86289 447.6161,570.86289 446.2232,571.6989 C 444.2379,572.89036 444.0518,572.87716 442.0389,571.40214 L 442.0389,571.40214 z"
       id="path6398" />
    <path
       style="opacity:1;fill:none;fill-opacity:1;fill-rule:nonzero;stroke:none;stroke-width:0;stroke-linecap:round;stroke-miterlimit:4;stroke-dasharray:none;stroke-dashoffset:0;stroke-opacity:1;display:inline"
       d="M 361.358,582.72221 C 361.358,581.49911 360.8969,581.19335 359.0526,581.19335 C 357.0326,581.19335 356.7471,580.92833 356.7471,579.05291 C 356.7471,576.96351 356.835,576.91253 360.4358,576.91253 C 363.5097,576.91253 364.1245,577.11637 364.1245,578.13563 C 364.1245,579.30612 364.7393,579.35873 378.4181,579.35873 C 392.0969,579.35873 392.7117,579.30612 392.7117,578.13563 C 392.7117,577.11637 393.3265,576.91253 396.4004,576.91253 C 400.0012,576.91253 400.089,576.96351 400.089,579.05291 C 400.089,580.92833 399.8036,581.19335 397.7836,581.19335 C 395.9393,581.19335 395.4782,581.49911 395.4782,582.72221 L 395.4782,584.25112 L 378.4181,584.25112 L 361.358,584.25112 L 361.358,582.72221 z"
       id="path6400" />
    <path
       style="opacity:1;fill:none;fill-opacity:1;fill-rule:nonzero;stroke:none;stroke-width:0;stroke-linecap:round;stroke-miterlimit:4;stroke-dasharray:none;stroke-dashoffset:0;stroke-opacity:1;display:inline"
       d="M 307.661,572.22946 C 306.3349,571.35007 305.9056,571.32609 304.5775,572.05705 C 303.2155,572.80665 302.6965,572.64491 300.1509,570.67732 C 298.5649,569.45148 293.4477,565.72095 288.7793,562.38727 C 280.8204,556.70398 280.3881,556.26186 281.845,555.29574 C 283.1717,554.41592 283.2207,554.07631 282.1804,552.97167 C 281.1155,551.84084 281.2123,551.51493 282.9497,550.38248 L 284.9372,549.08689 L 287.1385,550.89457 C 288.8042,552.26243 289.092,552.90004 288.3215,553.51577 C 287.5486,554.13338 287.8503,554.72911 289.5741,555.98902 C 290.823,556.90184 295.0914,560.05981 299.0594,563.00688 C 304.9526,567.38358 306.5146,568.23274 307.587,567.64246 C 308.6353,567.06548 309.3965,567.249 311.3622,568.55263 L 313.8244,570.18546 L 311.513,571.71825 C 309.3535,573.15041 309.1003,573.18399 307.661,572.22946 L 307.661,572.22946 z"
       id="path6402" />
    <path
       style="fill:#ff0000;fill-opacity:1;fill-rule:evenodd;stroke:#000000;stroke-width:1.8252486px;stroke-linecap:butt;stroke-linejoin:miter;stroke-opacity:1;display:inline"
       d="M 346.3272,578.74198 L 345.3067,586.98837 L 352.6946,587.04162 L 352.0915,592.15715 L 406.0773,591.88184 L 406.644,587.3033 L 413.5723,587.31316 L 414.1673,578.50779 L 400.8054,578.48866 L 400.2823,582.71504 L 359.2506,582.30429 L 359.6863,578.78234 L 346.3272,578.74198 z"
       id="path2498"
       sodipodi:nodetypes="ccccccccccccc" />
    <path
       style="fill:#ff0000;fill-opacity:1;fill-rule:evenodd;stroke:#000000;stroke-width:1.8252486px;stroke-linecap:butt;stroke-linejoin:miter;stroke-opacity:1;display:inline"
       d="M 432.5576,571.36759 L 441.4238,576.76264 L 445.7923,572.54337 L 451.3097,575.87289 L 482.4696,544.65354 L 477.547,541.65802 L 481.5978,537.67783 L 471.8422,532.20162 L 464.0298,539.87772 L 468.5738,542.64288 L 444.1795,566.00952 L 440.3928,563.70545 L 432.5576,571.36759 z"
       id="path2500"
       sodipodi:nodetypes="ccccccccccccc" />
    <path
       style="fill:#ff0000;fill-opacity:1;fill-rule:evenodd;stroke:#000000;stroke-width:1.8252486px;stroke-linecap:butt;stroke-linejoin:miter;stroke-opacity:1;display:inline"
       d="M 280,532.36218 L 270.9951,537.64086 L 276.1314,541.40157 L 270.5665,544.69116 L 308.7674,571.70521 L 313.7671,568.77441 L 318.6242,572.27302 L 327.892,566.38723 L 318.5247,559.63979 L 313.9095,562.34513 L 285.4982,541.37775 L 289.3439,539.12321 L 280,532.36218 z"
       id="path5204"
       sodipodi:nodetypes="ccccccccccccc" />
    <path
       style="fill:#ff0000;fill-rule:evenodd;stroke:#000000;stroke-width:1.9724648px;stroke-linecap:butt;stroke-linejoin:miter;stroke-opacity:1;display:inline"
       d="M 356.1955,311.39204 L 401.0597,311.21347 L 401.0801,296.29672 L 356.1751,296.2092 L 356.1955,311.39204 z"
       id="path5210"
       sodipodi:nodetypes="ccccc" />
    <path
       style="fill:#333333;fill-opacity:1;fill-rule:evenodd;stroke:#000000;stroke-width:1.16070211px;stroke-linecap:butt;stroke-linejoin:miter;stroke-opacity:1;display:inline"
       d="M 355.9939,397.44856 L 324.0424,427.7188 L 355.9939,427.7188 L 355.9939,397.44856 z"
       id="lBase"
       sodipodi:nodetypes="cccc"
       inkscape:label="#path3736" />
    <path
       style="fill:#333333;fill-opacity:1;fill-rule:evenodd;stroke:#000000;stroke-width:1.16070211px;stroke-linecap:butt;stroke-linejoin:miter;stroke-opacity:1;display:inline"
       d="M 402.6594,397.39611 L 434.6109,427.66635 L 402.6594,427.66635 L 402.6594,397.39611 z"
       id="rBase"
       sodipodi:nodetypes="cccc"
       inkscape:label="#path3734" />
  </g>
</svg>
