<?xml version="1.0" encoding="UTF-8" standalone="no"?>
<!-- Created with Inkscape (http://www.inkscape.org/) -->

<svg
   xmlns:dc="http://purl.org/dc/elements/1.1/"
   xmlns:cc="http://creativecommons.org/ns#"
   xmlns:rdf="http://www.w3.org/1999/02/22-rdf-syntax-ns#"
   xmlns:svg="http://www.w3.org/2000/svg"
   xmlns="http://www.w3.org/2000/svg"
   xmlns:sodipodi="http://sodipodi.sourceforge.net/DTD/sodipodi-0.dtd"
   xmlns:inkscape="http://www.inkscape.org/namespaces/inkscape"
   width="744.09448819"
   height="1052.3622047"
   id="svg2957"
   version="1.1"
   inkscape:version="0.46+devel 22040"
   sodipodi:docname="New document 3">
  <defs
     id="defs2959">
    <inkscape:perspective
       sodipodi:type="inkscape:persp3d"
       inkscape:vp_x="0 : 526.18109 : 1"
       inkscape:vp_y="0 : 1000 : 0"
       inkscape:vp_z="744.09448 : 526.18109 : 1"
       inkscape:persp3d-origin="372.04724 : 350.78739 : 1"
       id="perspective2965" />
    <inkscape:perspective
       id="perspective2934"
       inkscape:persp3d-origin="0.5 : 0.33333333 : 1"
       inkscape:vp_z="1 : 0.5 : 1"
       inkscape:vp_y="0 : 1000 : 0"
       inkscape:vp_x="0 : 0.5 : 1"
       sodipodi:type="inkscape:persp3d" />
  </defs>
  <sodipodi:namedview
     id="base"
     pagecolor="#ffffff"
     bordercolor="#666666"
     borderopacity="1.0"
     inkscape:pageopacity="0.0"
     inkscape:pageshadow="2"
     inkscape:zoom="0.35"
     inkscape:cx="375"
     inkscape:cy="520"
     inkscape:document-units="px"
     inkscape:current-layer="layer1"
     showgrid="false"
     inkscape:window-width="583"
     inkscape:window-height="487"
     inkscape:window-x="96"
     inkscape:window-y="96"
     inkscape:window-maximized="0" />
  <metadata
     id="metadata2962">
    <rdf:RDF>
      <cc:Work
         rdf:about="">
        <dc:format>image/svg+xml</dc:format>
        <dc:type
           rdf:resource="http://purl.org/dc/dcmitype/StillImage" />
        <dc:title></dc:title>
      </cc:Work>
    </rdf:RDF>
  </metadata>
  <g
     inkscape:label="Layer 1"
     inkscape:groupmode="layer"
     id="layer1">
    <path
       sodipodi:type="arc"
       style="fill:#000000;fill-opacity:0.64055301;fill-rule:nonzero;stroke:#000000;stroke-width:3.5323813;stroke-linecap:round;stroke-linejoin:miter;stroke-miterlimit:4;stroke-opacity:1;stroke-dasharray:none;stroke-dashoffset:0;display:inline"
       id="path2829"
       sodipodi:cx="941.46216"
       sodipodi:cy="357.37723"
       sodipodi:rx="70.710678"
       sodipodi:ry="72.73098"
       d="m 1012.1728,357.37723 a 70.710678,72.73098 0 1 1 -141.42132,0 70.710678,72.73098 0 1 1 141.42132,0 z"
       transform="matrix(1.4571429,0,0,1.375,-1046.1306,87.137196)" />
    <path
       style="fill:#333333;fill-rule:evenodd;stroke:#000000;stroke-width:1.4930371px;stroke-linecap:butt;stroke-linejoin:miter;stroke-opacity:1;display:inline"
       d="m 304.14332,315.86347 -0.71428,191.99646 45.38359,0 0,-191.99646 c -7.49641,30.9586 -30.932,43.97551 -44.66931,0 z"
       id="barrel"
       sodipodi:nodetypes="ccccc"
       inkscape:label="#path2962" />
    <path
       style="fill:#333333;fill-opacity:1;fill-rule:evenodd;stroke:#000000;stroke-width:1.16070211px;stroke-linecap:butt;stroke-linejoin:miter;stroke-opacity:1;display:inline"
       d="m 348.7165,477.77635 31.9515,30.27023 -31.9515,0 0,-30.27023 z"
       id="rBase"
       sodipodi:nodetypes="cccc"
       inkscape:label="#path3734" />
    <path
       style="fill:#333333;fill-opacity:1;fill-rule:evenodd;stroke:#000000;stroke-width:1.16070211px;stroke-linecap:butt;stroke-linejoin:miter;stroke-opacity:1;display:inline"
       d="m 302.69225,477.78401 -31.9515,30.27024 31.9515,0 0,-30.27024 z"
       id="lBase"
       sodipodi:nodetypes="cccc"
       inkscape:label="#path3736" />
    <path
       style="fill:none;stroke:#000000;stroke-width:1px;stroke-linecap:butt;stroke-linejoin:miter;stroke-opacity:1;display:inline"
       d="m 304.24837,344.42803 44.4467,0.25254 0,0"
       id="path3771" />
    <path
       style="fill:#ff0000;fill-opacity:0.64055301;fill-rule:nonzero;stroke:#000000;stroke-width:0;stroke-linecap:round;stroke-linejoin:miter;stroke-miterlimit:4;stroke-opacity:1;stroke-dasharray:none;stroke-dashoffset:0;display:inline"
       d="m 307.42531,343.81824 -2.46225,-0.0826 0,-11.27089 c 0,-6.19899 0.0432,-11.22354 0.096,-11.16567 0.0528,0.0579 0.57452,1.29847 1.15934,2.75688 3.83233,9.55698 8.95918,16.49936 14.25019,19.29648 l 1.23716,0.65403 -5.90911,-0.0528 c -3.25002,-0.0291 -7.01714,-0.09 -8.37137,-0.13542 z"
       id="path3775" />
    <path
       style="fill:#ff0000;fill-opacity:0.64055301;fill-rule:nonzero;stroke:#000000;stroke-width:0;stroke-linecap:round;stroke-linejoin:miter;stroke-miterlimit:4;stroke-opacity:1;stroke-dasharray:none;stroke-dashoffset:0;display:inline"
       d="m 332.87053,343.34219 c 0.69337,-0.36538 1.77207,-1.03701 2.3971,-1.49252 1.57249,-1.14599 4.72363,-4.45844 6.11987,-6.43316 1.61088,-2.27828 4.0848,-7.06509 5.39186,-10.43273 l 1.09521,-2.82182 0.01,10.92228 0.01,10.92227 -8.14235,0 -8.14235,0 1.26069,-0.66432 z"
       id="path3777" />
    <path
       sodipodi:type="arc"
       style="fill:#ff0000;fill-opacity:1;fill-rule:nonzero;stroke:#000000;stroke-width:3;stroke-linecap:round;stroke-linejoin:miter;stroke-miterlimit:4;stroke-opacity:1;stroke-dasharray:none;stroke-dashoffset:0"
       id="path3833-4"
       sodipodi:cx="575"
       sodipodi:cy="427.36218"
       sodipodi:rx="15"
       sodipodi:ry="15"
       d="m 590,427.36218 a 15,15 0 1 1 -30,0 15,15 0 1 1 30,0 z"
       transform="matrix(0.66666667,0,0,0.66666667,-19.233384,362.11008)" />
    <path
       sodipodi:type="arc"
       style="fill:#ff0000;fill-opacity:1;fill-rule:nonzero;stroke:#000000;stroke-width:3;stroke-linecap:round;stroke-linejoin:miter;stroke-miterlimit:4;stroke-opacity:1;stroke-dasharray:none;stroke-dashoffset:0"
       id="path3833-9"
       sodipodi:cx="575"
       sodipodi:cy="427.36218"
       sodipodi:rx="15"
       sodipodi:ry="15"
       d="m 590,427.36218 a 15,15 0 1 1 -30,0 15,15 0 1 1 30,0 z"
       transform="matrix(0.66666667,0,0,0.66666667,9.0508863,338.87657)" />
    <path
       sodipodi:type="arc"
       style="fill:#ff0000;fill-opacity:1;fill-rule:nonzero;stroke:#000000;stroke-width:3;stroke-linecap:round;stroke-linejoin:miter;stroke-miterlimit:4;stroke-opacity:1;stroke-dasharray:none;stroke-dashoffset:0"
       id="path3833-8"
       sodipodi:cx="575"
       sodipodi:cy="427.36218"
       sodipodi:rx="15"
       sodipodi:ry="15"
       d="m 590,427.36218 a 15,15 0 1 1 -30,0 15,15 0 1 1 30,0 z"
       transform="matrix(0.66666667,0,0,0.66666667,22.182866,304.53139)" />
    <path
       sodipodi:type="arc"
       style="fill:#ff0000;fill-opacity:1;fill-rule:nonzero;stroke:#000000;stroke-width:3;stroke-linecap:round;stroke-linejoin:miter;stroke-miterlimit:4;stroke-opacity:1;stroke-dasharray:none;stroke-dashoffset:0"
       id="path3833-2"
       sodipodi:cx="575"
       sodipodi:cy="427.36218"
       sodipodi:rx="15"
       sodipodi:ry="15"
       d="m 590,427.36218 a 15,15 0 1 1 -30,0 15,15 0 1 1 30,0 z"
       transform="matrix(0.66666667,0,0,0.66666667,16.121956,267.15574)" />
    <path
       sodipodi:type="arc"
       style="fill:#ff0000;fill-opacity:1;fill-rule:nonzero;stroke:#000000;stroke-width:3;stroke-linecap:round;stroke-linejoin:miter;stroke-miterlimit:4;stroke-opacity:1;stroke-dasharray:none;stroke-dashoffset:0"
       id="path3833-5"
       sodipodi:cx="575"
       sodipodi:cy="427.36218"
       sodipodi:rx="15"
       sodipodi:ry="15"
       d="m 590,427.36218 a 15,15 0 1 1 -30,0 15,15 0 1 1 30,0 z"
       transform="matrix(0.66666667,0,0,0.66666667,-16.202924,239.88163)" />
    <path
       sodipodi:type="arc"
       style="fill:#ff0000;fill-opacity:1;fill-rule:nonzero;stroke:#000000;stroke-width:3;stroke-linecap:round;stroke-linejoin:miter;stroke-miterlimit:4;stroke-opacity:1;stroke-dasharray:none;stroke-dashoffset:0"
       id="path3833-7"
       sodipodi:cx="575"
       sodipodi:cy="427.36218"
       sodipodi:rx="15"
       sodipodi:ry="15"
       d="m 590,427.36218 a 15,15 0 1 1 -30,0 15,15 0 1 1 30,0 z"
       transform="matrix(0.66666667,0,0,0.66666667,-97.015124,363.12023)" />
    <path
       sodipodi:type="arc"
       style="fill:#ff0000;fill-opacity:1;fill-rule:nonzero;stroke:#000000;stroke-width:3;stroke-linecap:round;stroke-linejoin:miter;stroke-miterlimit:4;stroke-opacity:1;stroke-dasharray:none;stroke-dashoffset:0"
       id="path3833-52"
       sodipodi:cx="575"
       sodipodi:cy="427.36218"
       sodipodi:rx="15"
       sodipodi:ry="15"
       d="m 590,427.36218 a 15,15 0 1 1 -30,0 15,15 0 1 1 30,0 z"
       transform="matrix(0.66666667,0,0,0.66666667,-124.28925,336.85626)" />
    <path
       sodipodi:type="arc"
       style="fill:#ff0000;fill-opacity:1;fill-rule:nonzero;stroke:#000000;stroke-width:3;stroke-linecap:round;stroke-linejoin:miter;stroke-miterlimit:4;stroke-opacity:1;stroke-dasharray:none;stroke-dashoffset:0"
       id="path3833-14"
       sodipodi:cx="575"
       sodipodi:cy="427.36218"
       sodipodi:rx="15"
       sodipodi:ry="15"
       d="m 590,427.36218 a 15,15 0 1 1 -30,0 15,15 0 1 1 30,0 z"
       transform="matrix(0.66666667,0,0,0.66666667,-138.43138,303.52124)" />
    <path
       sodipodi:type="arc"
       style="fill:#ff0000;fill-opacity:1;fill-rule:nonzero;stroke:#000000;stroke-width:3;stroke-linecap:round;stroke-linejoin:miter;stroke-miterlimit:4;stroke-opacity:1;stroke-dasharray:none;stroke-dashoffset:0"
       id="path3833-3"
       sodipodi:cx="575"
       sodipodi:cy="427.36218"
       sodipodi:rx="15"
       sodipodi:ry="15"
       d="m 590,427.36218 a 15,15 0 1 1 -30,0 15,15 0 1 1 30,0 z"
       transform="matrix(0.66666667,0,0,0.66666667,-131.36032,267.15574)" />
    <path
       sodipodi:type="arc"
       style="fill:#ff0000;fill-opacity:1;fill-rule:nonzero;stroke:#000000;stroke-width:3;stroke-linecap:round;stroke-linejoin:miter;stroke-miterlimit:4;stroke-opacity:1;stroke-dasharray:none;stroke-dashoffset:0"
       id="path3833-16"
       sodipodi:cx="575"
       sodipodi:cy="427.36218"
       sodipodi:rx="15"
       sodipodi:ry="15"
       d="m 590,427.36218 a 15,15 0 1 1 -30,0 15,15 0 1 1 30,0 z"
       transform="matrix(0.66666667,0,0,0.66666667,-106.1065,240.89177)" />
    <path
       sodipodi:type="arc"
       style="fill:#ff0000;fill-opacity:1;fill-rule:nonzero;stroke:#000000;stroke-width:3;stroke-linecap:round;stroke-linejoin:miter;stroke-miterlimit:4;stroke-opacity:1;stroke-dasharray:none;stroke-dashoffset:0"
       id="path3833-1"
       sodipodi:cx="575"
       sodipodi:cy="427.36218"
       sodipodi:rx="15"
       sodipodi:ry="15"
       d="m 590,427.36218 a 15,15 0 1 1 -30,0 15,15 0 1 1 30,0 z"
       transform="matrix(0.66666667,0,0,0.66666667,-57.619184,370.1913)" />
    <path
       sodipodi:type="arc"
       style="fill:#ff0000;fill-opacity:1;fill-rule:nonzero;stroke:#000000;stroke-width:3;stroke-linecap:round;stroke-linejoin:miter;stroke-miterlimit:4;stroke-opacity:1;stroke-dasharray:none;stroke-dashoffset:0"
       id="path3833-1-3"
       sodipodi:cx="575"
       sodipodi:cy="427.36218"
       sodipodi:rx="15"
       sodipodi:ry="15"
       d="m 590,427.36218 a 15,15 0 1 1 -30,0 15,15 0 1 1 30,0 z"
       transform="matrix(0.66666667,0,0,0.66666667,-58.629334,219.67857)" />
  </g>
</svg>
