<?xml version="1.0" encoding="UTF-8" standalone="no"?>
<!-- Created with Inkscape (http://www.inkscape.org/) -->
<svg
   xmlns:dc="http://purl.org/dc/elements/1.1/"
   xmlns:cc="http://creativecommons.org/ns#"
   xmlns:rdf="http://www.w3.org/1999/02/22-rdf-syntax-ns#"
   xmlns:svg="http://www.w3.org/2000/svg"
   xmlns="http://www.w3.org/2000/svg"
   xmlns:sodipodi="http://sodipodi.sourceforge.net/DTD/sodipodi-0.dtd"
   xmlns:inkscape="http://www.inkscape.org/namespaces/inkscape"
   width="744.09448819"
   height="1052.3622047"
   id="svg2957"
   version="1.1"
   inkscape:version="0.46"
   sodipodi:docname="nemesis-turret.svg"
   sodipodi:version="0.32"
   inkscape:output_extension="org.inkscape.output.svg.inkscape">
  <defs
     id="defs2959">
    <inkscape:perspective
       sodipodi:type="inkscape:persp3d"
       inkscape:vp_x="0 : 526.18109 : 1"
       inkscape:vp_y="0 : 1000 : 0"
       inkscape:vp_z="744.09448 : 526.18109 : 1"
       inkscape:persp3d-origin="372.04724 : 350.78739 : 1"
       id="perspective2965" />
    <inkscape:perspective
       id="perspective2934"
       inkscape:persp3d-origin="0.5 : 0.33333333 : 1"
       inkscape:vp_z="1 : 0.5 : 1"
       inkscape:vp_y="0 : 1000 : 0"
       inkscape:vp_x="0 : 0.5 : 1"
       sodipodi:type="inkscape:persp3d" />
  </defs>
  <sodipodi:namedview
     id="base"
     pagecolor="#ffffff"
     bordercolor="#666666"
     borderopacity="1.0"
     inkscape:pageopacity="0.0"
     inkscape:pageshadow="2"
     inkscape:zoom="1.4"
     inkscape:cx="238.06312"
     inkscape:cy="391.59747"
     inkscape:document-units="px"
     inkscape:current-layer="layer1"
     showgrid="true"
     inkscape:window-width="676"
     inkscape:window-height="677"
     inkscape:window-x="185"
     inkscape:window-y="28"
     inkscape:window-maximized="0">
    <inkscape:grid
       type="xygrid"
       id="grid2527" />
  </sodipodi:namedview>
  <metadata
     id="metadata2962">
    <rdf:RDF>
      <cc:Work
         rdf:about="">
        <dc:format>image/svg+xml</dc:format>
        <dc:type
           rdf:resource="http://purl.org/dc/dcmitype/StillImage" />
        <dc:title />
      </cc:Work>
    </rdf:RDF>
  </metadata>
  <g
     inkscape:label="Layer 1"
     inkscape:groupmode="layer"
     id="layer1">
    <path
       sodipodi:type="arc"
       style="fill:#1a1a1a;display:inline"
       id="path2396"
       sodipodi:cx="904.08655"
       sodipodi:cy="270.50412"
       sodipodi:rx="116.16754"
       sodipodi:ry="117.1777"
       d="M 1020.2541,270.50412 A 116.16754,117.1777 0 1 1 787.91901,270.50412 A 116.16754,117.1777 0 1 1 1020.2541,270.50412 z"
       transform="matrix(0.9130435,0,0,0.862069,-498.32749,518.09751)" />
    <path
       style="fill:#1a1a1a;fill-rule:evenodd;stroke:#000000;stroke-width:1.49303710000000000px;stroke-linecap:butt;stroke-linejoin:miter;stroke-opacity:1;display:inline;fill-opacity:1"
       d="M 307.38503,461.73632 L 306.67075,653.73278 L 352.05434,653.73278 L 352.05434,461.73632 C 344.55793,492.69492 321.12234,505.71183 307.38503,461.73632 z"
       id="barrel"
       sodipodi:nodetypes="ccccc"
       inkscape:label="#path2962" />
    <path
       style="fill:#800000"
       d="M 308.06912,483.84683 C 308.09911,474.40599 308.13257,466.67053 308.14347,466.65693 C 308.15438,466.64333 308.41618,467.30628 308.72526,468.13014 C 312.91116,479.28782 318.31229,486.78435 324.21504,489.62927 C 326.20635,490.58902 327.80484,490.95973 329.92932,490.95449 C 332.10963,490.94911 333.57642,490.59115 335.75184,489.53353 C 339.15974,487.87672 342.21892,484.96354 345.12235,480.61023 C 347.28535,477.36708 349.06587,473.71523 350.69451,469.18166 L 351.30394,467.48523 L 351.3086,484.24862 L 351.31325,501.01201 L 329.66392,501.01201 L 308.01459,501.01201 L 308.06912,483.84683 z"
       id="path2603" />
    <path
       sodipodi:type="arc"
       style="fill:#ff0000;fill-opacity:1;fill-rule:nonzero;stroke:#000000;stroke-width:3;stroke-linecap:round;stroke-linejoin:miter;stroke-miterlimit:4;stroke-dasharray:none;stroke-dashoffset:0;stroke-opacity:1"
       id="path3833-1-3"
       sodipodi:cx="575"
       sodipodi:cy="427.36218"
       sodipodi:rx="15"
       sodipodi:ry="15"
       d="M 590,427.36218 A 15,15 0 1 1 560,427.36218 A 15,15 0 1 1 590,427.36218 z"
       transform="matrix(0.6666667,0,0,0.6666667,-60.47621,547.45405)" />
    <path
       sodipodi:type="arc"
       style="fill:#ff0000;fill-opacity:1;fill-rule:nonzero;stroke:#000000;stroke-width:3;stroke-linecap:round;stroke-linejoin:miter;stroke-miterlimit:4;stroke-dasharray:none;stroke-dashoffset:0;stroke-opacity:1"
       id="path2612"
       sodipodi:cx="575"
       sodipodi:cy="427.36218"
       sodipodi:rx="15"
       sodipodi:ry="15"
       d="M 590,427.36218 A 15,15 0 1 1 560,427.36218 A 15,15 0 1 1 590,427.36218 z"
       transform="matrix(0.6666667,0,0,0.6666667,-17.619069,533.16834)" />
    <path
       sodipodi:type="arc"
       style="fill:#ff0000;fill-opacity:1;fill-rule:nonzero;stroke:#000000;stroke-width:3;stroke-linecap:round;stroke-linejoin:miter;stroke-miterlimit:4;stroke-dasharray:none;stroke-dashoffset:0;stroke-opacity:1"
       id="path2614"
       sodipodi:cx="575"
       sodipodi:cy="427.36218"
       sodipodi:rx="15"
       sodipodi:ry="15"
       d="M 590,427.36218 A 15,15 0 1 1 560,427.36218 A 15,15 0 1 1 590,427.36218 z"
       transform="matrix(0.6666667,0,0,0.6666667,10.952363,505.3112)" />
    <path
       sodipodi:type="arc"
       style="fill:#ff0000;fill-opacity:1;fill-rule:nonzero;stroke:#000000;stroke-width:3;stroke-linecap:round;stroke-linejoin:miter;stroke-miterlimit:4;stroke-dasharray:none;stroke-dashoffset:0;stroke-opacity:1"
       id="path2616"
       sodipodi:cx="575"
       sodipodi:cy="427.36218"
       sodipodi:rx="15"
       sodipodi:ry="15"
       d="M 590,427.36218 A 15,15 0 1 1 560,427.36218 A 15,15 0 1 1 590,427.36218 z"
       transform="matrix(0.6666667,0,0,0.6666667,-101.90478,527.45405)" />
    <path
       sodipodi:type="arc"
       style="fill:#ff0000;fill-opacity:1;fill-rule:nonzero;stroke:#000000;stroke-width:3;stroke-linecap:round;stroke-linejoin:miter;stroke-miterlimit:4;stroke-dasharray:none;stroke-dashoffset:0;stroke-opacity:1"
       id="path2618"
       sodipodi:cx="575"
       sodipodi:cy="427.36218"
       sodipodi:rx="15"
       sodipodi:ry="15"
       d="M 590,427.36218 A 15,15 0 1 1 560,427.36218 A 15,15 0 1 1 590,427.36218 z"
       transform="matrix(0.6666667,0,0,0.6666667,-129.04763,494.59691)" />
    <path
       sodipodi:type="arc"
       style="fill:#ff0000;fill-opacity:1;fill-rule:nonzero;stroke:#000000;stroke-width:3;stroke-linecap:round;stroke-linejoin:miter;stroke-miterlimit:4;stroke-dasharray:none;stroke-dashoffset:0;stroke-opacity:1"
       id="path2620"
       sodipodi:cx="575"
       sodipodi:cy="427.36218"
       sodipodi:rx="15"
       sodipodi:ry="15"
       d="M 590,427.36218 A 15,15 0 1 1 560,427.36218 A 15,15 0 1 1 590,427.36218 z"
       transform="matrix(0.6666667,0,0,0.6666667,21.666644,460.31119)" />
    <path
       sodipodi:type="arc"
       style="fill:#ff0000;fill-opacity:1;fill-rule:nonzero;stroke:#000000;stroke-width:3;stroke-linecap:round;stroke-linejoin:miter;stroke-miterlimit:4;stroke-dasharray:none;stroke-dashoffset:0;stroke-opacity:1"
       id="path2622"
       sodipodi:cx="575"
       sodipodi:cy="427.36218"
       sodipodi:rx="15"
       sodipodi:ry="15"
       d="M 590,427.36218 A 15,15 0 1 1 560,427.36218 A 15,15 0 1 1 590,427.36218 z"
       transform="matrix(0.6666667,0,0,0.6666667,5.9523613,416.02547)" />
    <path
       sodipodi:type="arc"
       style="fill:#ff0000;fill-opacity:1;fill-rule:nonzero;stroke:#000000;stroke-width:3;stroke-linecap:round;stroke-linejoin:miter;stroke-miterlimit:4;stroke-dasharray:none;stroke-dashoffset:0;stroke-opacity:1"
       id="path2624"
       sodipodi:cx="575"
       sodipodi:cy="427.36218"
       sodipodi:rx="15"
       sodipodi:ry="15"
       d="M 590,427.36218 A 15,15 0 1 1 560,427.36218 A 15,15 0 1 1 590,427.36218 z"
       transform="matrix(0.6666667,0,0,0.6666667,-33.333352,394.59691)" />
    <path
       sodipodi:type="arc"
       style="fill:#ff0000;fill-opacity:1;fill-rule:nonzero;stroke:#000000;stroke-width:3;stroke-linecap:round;stroke-linejoin:miter;stroke-miterlimit:4;stroke-dasharray:none;stroke-dashoffset:0;stroke-opacity:1"
       id="path2626"
       sodipodi:cx="575"
       sodipodi:cy="427.36218"
       sodipodi:rx="15"
       sodipodi:ry="15"
       d="M 590,427.36218 A 15,15 0 1 1 560,427.36218 A 15,15 0 1 1 590,427.36218 z"
       transform="matrix(0.6666667,0,0,0.6666667,-136.19049,456.02547)" />
    <path
       sodipodi:type="arc"
       style="fill:#ff0000;fill-opacity:1;fill-rule:nonzero;stroke:#000000;stroke-width:3;stroke-linecap:round;stroke-linejoin:miter;stroke-miterlimit:4;stroke-dasharray:none;stroke-dashoffset:0;stroke-opacity:1"
       id="path2628"
       sodipodi:cx="575"
       sodipodi:cy="427.36218"
       sodipodi:rx="15"
       sodipodi:ry="15"
       d="M 590,427.36218 A 15,15 0 1 1 560,427.36218 A 15,15 0 1 1 590,427.36218 z"
       transform="matrix(0.6666667,0,0,0.6666667,-116.90478,421.73976)" />
    <path
       sodipodi:type="arc"
       style="fill:#ff0000;fill-opacity:1;fill-rule:nonzero;stroke:#000000;stroke-width:3;stroke-linecap:round;stroke-linejoin:miter;stroke-miterlimit:4;stroke-dasharray:none;stroke-dashoffset:0;stroke-opacity:1"
       id="path2630"
       sodipodi:cx="575"
       sodipodi:cy="427.36218"
       sodipodi:rx="15"
       sodipodi:ry="15"
       d="M 590,427.36218 A 15,15 0 1 1 560,427.36218 A 15,15 0 1 1 590,427.36218 z"
       transform="matrix(0.6666667,0,0,0.6666667,-81.904783,395.31118)" />
    <path
       style="fill:#1a1a1a;fill-rule:evenodd;stroke:#000000;stroke-width:1px;stroke-linecap:butt;stroke-linejoin:miter;stroke-opacity:1;fill-opacity:1"
       d="M 306.42857,617.18361 L 270,666.11218 L 306.78571,652.18361 L 306.42857,617.18361 z"
       id="path2634" />
    <path
       style="fill:#1a1a1a;fill-opacity:1;fill-rule:evenodd;stroke:#000000;stroke-width:1px;stroke-linecap:butt;stroke-linejoin:miter;stroke-opacity:1"
       d="M 352.37134,617.71932 L 387.99154,668.59379 L 352.20277,652.72074 L 352.37134,617.71932 z"
       id="path3408"
       sodipodi:nodetypes="cccc" />
  </g>
</svg>
