<?xml version="1.0" encoding="UTF-8" standalone="no"?>
<!-- Created with Inkscape (http://www.inkscape.org/) -->
<svg
   xmlns:dc="http://purl.org/dc/elements/1.1/"
   xmlns:cc="http://creativecommons.org/ns#"
   xmlns:rdf="http://www.w3.org/1999/02/22-rdf-syntax-ns#"
   xmlns:svg="http://www.w3.org/2000/svg"
   xmlns="http://www.w3.org/2000/svg"
   xmlns:sodipodi="http://sodipodi.sourceforge.net/DTD/sodipodi-0.dtd"
   xmlns:inkscape="http://www.inkscape.org/namespaces/inkscape"
   width="744.09448"
   height="1052.3622"
   id="svg2"
   sodipodi:version="0.32"
   inkscape:version="0.46"
   sodipodi:docname="Kzer-Za.svg"
   inkscape:output_extension="org.inkscape.output.svg.inkscape"
   version="1.0">
  <defs
     id="defs4">
    <inkscape:perspective
       sodipodi:type="inkscape:persp3d"
       inkscape:vp_x="0 : 526.18109 : 1"
       inkscape:vp_y="0 : 1000 : 0"
       inkscape:vp_z="744.09448 : 526.18109 : 1"
       inkscape:persp3d-origin="372.04724 : 350.78739 : 1"
       id="perspective10" />
    <filter
       id="filter4827"
       inkscape:label="filter1">
      <feBlend
         blend="normal"
         id="feBlend4829" />
    </filter>
  </defs>
  <sodipodi:namedview
     id="base"
     pagecolor="#ffffff"
     bordercolor="#666666"
     borderopacity="1.0"
     gridtolerance="10000"
     guidetolerance="10"
     objecttolerance="10"
     inkscape:pageopacity="0.0"
     inkscape:pageshadow="2"
     inkscape:zoom="0.49497475"
     inkscape:cx="237.70153"
     inkscape:cy="245.79108"
     inkscape:document-units="px"
     inkscape:current-layer="layer3"
     showgrid="true"
     inkscape:window-width="970"
     inkscape:window-height="728"
     inkscape:window-x="170"
     inkscape:window-y="11"
     inkscape:snap-global="true">
    <inkscape:grid
       type="xygrid"
       id="grid2383" />
  </sodipodi:namedview>
  <metadata
     id="metadata7">
    <rdf:RDF>
      <cc:Work
         rdf:about="">
        <dc:format>image/svg+xml</dc:format>
        <dc:type
           rdf:resource="http://purl.org/dc/dcmitype/StillImage" />
      </cc:Work>
    </rdf:RDF>
  </metadata>
  <g
     inkscape:groupmode="layer"
     id="layer2"
     inkscape:label="skeleton"
     style="display:inline">
    <path
       style="fill:#00ff00;fill-opacity:1;fill-rule:nonzero;stroke:#000000;stroke-width:1px;stroke-linecap:butt;stroke-linejoin:miter;stroke-opacity:1"
       d="M -180,912.36218 L -180,852.36218 L -67.87817,753.37233 L 67.87817,752.36218 L 180,852.36218 L 180,912.36218 L 120,952.36218 L -120,952.36218 L -180,912.36218 z"
       id="bridge"
       inkscape:label="bridge"
       sodipodi:nodetypes="ccccccccc" />
    <path
       style="fill:none;fill-rule:evenodd;stroke:#000000;stroke-width:1px;stroke-linecap:butt;stroke-linejoin:miter;stroke-opacity:1"
       d="M 110,952.36218 L 110,1202.3622 L -110,1202.3622 L -109.01088,951.52535"
       id="body"
       sodipodi:nodetypes="cccc"
       inkscape:label="body" />
    <path
       style="fill:none;fill-rule:evenodd;stroke:#000000;stroke-width:1px;stroke-linecap:butt;stroke-linejoin:miter;stroke-opacity:1"
       d="M -90,1202.3622 L -90,1222.3622 L -140,1252.3622 L -140,1272.3622 L -105.44156,1311.5398 L 105.68032,1311.5398 L 140,1272.3622 L 140,1252.3622 L 90,1222.3622 L 90,1202.3622 L -90,1202.3622 z"
       id="tail"
       sodipodi:nodetypes="ccccccccccc"
       inkscape:label="tail" />
    <path
       style="fill:none;fill-rule:evenodd;stroke:#000000;stroke-width:1px;stroke-linecap:butt;stroke-linejoin:miter;stroke-opacity:1"
       d="M 110,1082.3622 L 180,1082.3622 L 180,1132.3622 L 110,1132.3622 L 110,1082.3622 z"
       id="rightStrut"
       sodipodi:nodetypes="ccccc"
       inkscape:label="rightStrut" />
    <path
       style="fill:none;fill-rule:evenodd;stroke:#000000;stroke-width:1px;stroke-linecap:butt;stroke-linejoin:miter;stroke-opacity:1"
       d="M -110,1082.3622 L -110,1132.3622 L -180,1132.3622 L -180,1082.3622 L -110,1082.3622 z"
       id="leftStrut"
       inkscape:label="leftStrut"
       sodipodi:nodetypes="ccccc" />
    <path
       style="fill:none;fill-rule:evenodd;stroke:#000000;stroke-width:1px;stroke-linecap:butt;stroke-linejoin:miter;stroke-opacity:1"
       d="M 180,932.36218 L 180,1262.3622 L 200,1262.3622 L 280,1152.3622 L 280,932.36218 L 180,932.36218 z"
       id="rightWing"
       inkscape:label="rightWing"
       sodipodi:nodetypes="cccccc" />
    <path
       style="fill:none;fill-rule:evenodd;stroke:#000000;stroke-width:1px;stroke-linecap:butt;stroke-linejoin:miter;stroke-opacity:1"
       d="M -280.19795,1151.9357 L -280,932.36218 L -180,932.36218 L -180,1262.3622 L -200,1262.3622 L -280.19795,1151.9357 z"
       id="leftWing"
       inkscape:label="leftWing"
       sodipodi:nodetypes="cccccc" />
  </g>
  <g
     inkscape:groupmode="layer"
     id="layer3"
     inkscape:label="skin"
     style="display:inline">
    <path
       style="fill:#f1f716;fill-opacity:1;fill-rule:evenodd;stroke:#000000;stroke-width:1px;stroke-linecap:butt;stroke-linejoin:miter;stroke-opacity:1"
       d="M -145,874.50504 L -145,858.07647 L -88.57143,805.21933 L 85,804.50504 L 142.85714,858.07647 L 142.85714,875.93361 L 104.28571,875.21933 L 85,840.93361 L -87.85714,840.21933 L -108.57143,874.50504 L -145,874.50504 z"
       id="path2400"
       sodipodi:nodetypes="ccccccccccc" />
    <rect
       style="opacity:1;fill:#d40000;fill-opacity:1;fill-rule:nonzero;stroke:#020202;stroke-opacity:1"
       id="rect2476"
       width="100"
       height="30"
       x="180"
       y="932.36218"
       rx="0.30000001"
       ry="0.5" />
    <rect
       style="opacity:1;fill:#d40000;fill-opacity:1;fill-rule:nonzero;stroke:#020202;stroke-opacity:1"
       id="rect2478"
       width="100"
       height="30"
       x="-280"
       y="932.36218"
       rx="0.30000001"
       ry="0.5" />
    <rect
       style="opacity:1;fill:#483737;fill-opacity:1;fill-rule:nonzero;stroke:#020202;stroke-opacity:1"
       id="rect2480"
       width="100"
       height="40"
       x="-280"
       y="962.36218"
       rx="0.30000001"
       ry="0.5" />
    <rect
       style="opacity:1;fill:#483737;fill-opacity:1;fill-rule:nonzero;stroke:#020202;stroke-opacity:1"
       id="rect2482"
       width="100"
       height="40"
       x="180"
       y="962.36218"
       rx="0.30000001"
       ry="0.5" />
    <path
       style="opacity:1;fill:#00ff00;fill-opacity:1;fill-rule:nonzero;stroke:#020202;stroke-opacity:1"
       d="M 180.57143,1131.9823 L 180.57143,1002.6966 L 229.85714,1002.6966 L 279.14286,1002.6966 L 279.14286,1077.3867 L 279.14286,1152.0767 L 239.43536,1206.6724 L 199.728,1261.2681 L 190.14964,1261.2681 L 180.57143,1261.2681 L 180.57143,1131.9823 z"
       id="path2520" />
    <path
       style="opacity:1;fill:#00ff00;fill-opacity:1;fill-rule:nonzero;stroke:#020202;stroke-opacity:1"
       d="M -108.90249,1119.6609 C -108.80149,1074.777 -108.51862,1019.0091 -108.27388,995.73234 L -107.82889,953.41092 L 0.65696,953.41092 L 109.14286,953.41092 L 109.14286,1077.3395 L 109.14286,1201.2681 L 0.02839,1201.2681 L -109.08608,1201.2681 L -108.90249,1119.6609 z"
       id="path2522" />
    <rect
       style="opacity:1;fill:#ff0000;fill-opacity:1;fill-rule:nonzero"
       id="rect2530"
       width="0"
       height="20"
       x="260"
       y="1792.3622"
       rx="0.30000001"
       ry="0.5" />
    <rect
       style="opacity:1;fill:#ff0000;fill-opacity:1;fill-rule:nonzero"
       id="rect2534"
       width="200"
       height="20"
       x="-100"
       y="1292.3622"
       rx="0.30000001" />
    <path
       style="opacity:1;fill:#00ff00;fill-opacity:1;fill-rule:nonzero;stroke:#020202;stroke-opacity:1"
       d="M -122.12876,1291.3478 L -139.47008,1271.7069 L -139.27075,1262.2786 L -139.07143,1252.8504 L -114.25,1237.9516 L -89.42857,1223.0529 L -89.42857,1213.0922 L -89.42857,1203.1315 L -0.14286,1203.1315 L 89.14286,1203.1315 L 89.14286,1213.0556 L 89.14286,1222.9796 L 114.14286,1237.8761 L 139.14286,1252.7725 L 139.13393,1262.4163 L 139.12493,1272.06 L 122.24193,1291.3457 C 107.08121,1308.6642 105.11486,1310.6541 102.96521,1310.8532 L 100.57143,1311.0748 L 100.57143,1301.7596 C 100.57143,1292.6905 100.529,1292.4342 98.96429,1292.0565 C 98.08036,1291.8432 53,1291.7567 -1.21429,1291.8644 L -99.78571,1292.06 L -99.98504,1301.5243 L -100.18431,1310.9886 L -102.48586,1310.9886 C -104.60221,1310.9886 -106.18316,1309.4078 -122.12876,1291.3478 L -122.12876,1291.3478 z"
       id="path2536" />
    <path
       style="opacity:1;fill:#00ff00;fill-opacity:1;fill-rule:nonzero;stroke:#020202;stroke-opacity:1"
       d="M -200.29523,1260.3141 C -200.89364,1259.6266 -218.94346,1234.8711 -240.40592,1205.3019 L -279.42857,1151.5397 L -279.42857,1077.2662 L -279.42857,1002.9927 L -230.14286,1002.9927 L -180.85714,1002.9927 L -180.85714,1132.2784 L -180.85714,1261.5641 L -190.03216,1261.5641 C -197.87957,1261.5641 -199.3646,1261.3833 -200.29521,1260.3141 L -200.29523,1260.3141 z"
       id="path2538" />
    <path
       style="opacity:1;fill:#916f6f;fill-opacity:1;fill-rule:nonzero;stroke:#020202;stroke-opacity:1"
       d="M -179.42857,1107.2784 L -179.42857,1082.9927 L -145.14286,1082.9927 L -110.85714,1082.9927 L -110.85714,1107.2784 L -110.85714,1131.5641 L -145.14286,1131.5641 L -179.42857,1131.5641 L -179.42857,1107.2784 z"
       id="path2540" />
    <path
       style="opacity:1;fill:#916f6f;fill-opacity:1;fill-rule:nonzero;stroke:#020202;stroke-opacity:1"
       d="M 110.57143,1107.2784 L 110.57143,1082.9927 L 144.85714,1082.9927 L 179.14286,1082.9927 L 179.14286,1107.2784 L 179.14286,1131.5641 L 144.85714,1131.5641 L 110.57143,1131.5641 L 110.57143,1107.2784 z"
       id="path2542" />
    <path
       style="opacity:1;fill:#d40000;fill-opacity:1;fill-rule:nonzero;stroke:#020202;stroke-opacity:1"
       d="M -99.42857,1302.3043 L -99.42857,1292.6615 L 0.21429,1292.6615 L 99.85714,1292.6615 L 99.85714,1302.3043 L 99.85714,1311.9472 L 0.21429,1311.9472 L -99.42857,1311.9472 L -99.42857,1302.3043 z"
       id="path2544" />
    <path
       style="opacity:1;fill:#00ff00;fill-opacity:1;fill-rule:nonzero"
       d="M 29.52856,763.60078 C 29.73578,763.58205 30.09739,763.58183 30.33213,763.60028 C 30.56687,763.61873 30.39732,763.63406 29.95536,763.63433 C 29.51339,763.6346 29.32133,763.6195 29.52856,763.60078 L 29.52856,763.60078 z"
       id="path3330" />
    <path
       style="opacity:1;fill:#00ff00;fill-opacity:1;fill-rule:nonzero"
       d="M 30.97545,763.55999 L 30.97545,763.52093 L 31.30302,763.52093 C 32.30483,763.52093 36.80645,763.46278 38.64844,763.42604 C 42.09884,763.35723 45.21385,763.25572 46.69531,763.16381 C 46.92815,763.14936 46.93527,763.1495 46.93527,763.16833 C 46.93527,763.18798 46.92632,763.1886 46.02335,763.23113 C 42.45359,763.39926 38.53673,763.51472 34.6808,763.56549 C 33.74674,763.57779 31.54902,763.59884 31.18471,763.59898 L 30.97545,763.59906 L 30.97545,763.55999 z"
       id="path3332" />
    <path
       style="opacity:1;fill:#00ff00;fill-opacity:1;fill-rule:nonzero"
       d="M 38.00949,762.44113 L 30.97545,762.43832 L 30.97545,762.40485 L 30.97545,762.37138 L 38.95536,762.37138 L 46.93527,762.37138 L 46.93527,762.41044 L 46.93527,762.4495 L 45.9894,762.44672 C 45.46917,762.44519 41.87821,762.44268 38.00949,762.44113 z"
       id="path3334" />
    <path
       style="opacity:1;fill:#00ff00;fill-opacity:1;fill-rule:nonzero"
       d="M 30.45641,763.58662 C 30.50416,763.57939 30.58229,763.57939 30.63003,763.58662 C 30.67778,763.59385 30.63871,763.59977 30.54322,763.59977 C 30.44773,763.59977 30.40867,763.59385 30.45641,763.58662 z"
       id="path3336" />
    <rect
       style="opacity:1;fill:#aa0000;fill-opacity:1;fill-rule:nonzero;stroke:#000000;stroke-opacity:1"
       id="rect3352"
       width="120"
       height="10"
       x="-60"
       y="752.36218"
       rx="0.30000001"
       ry="0.5" />
    <path
       style="opacity:1;fill:#d6d632;fill-opacity:1;fill-rule:nonzero;stroke:#020202;stroke-width:1;stroke-opacity:1"
       d="M 62.20312,1091.6719 L 21.76562,1070.1406 L -0.67188,1030.1719 L -22.23438,1070.6094 L -62.20312,1093.0469 L -21.76562,1114.5781 L 0.67188,1154.5469 L 22.23438,1114.1094 L 62.20312,1091.6719 z"
       id="path4825" />
  </g>
</svg>
