<?xml version="1.0" encoding="UTF-8" standalone="no"?>
<!-- Created with Inkscape (http://www.inkscape.org/) -->
<svg
   xmlns:dc="http://purl.org/dc/elements/1.1/"
   xmlns:cc="http://creativecommons.org/ns#"
   xmlns:rdf="http://www.w3.org/1999/02/22-rdf-syntax-ns#"
   xmlns:svg="http://www.w3.org/2000/svg"
   xmlns="http://www.w3.org/2000/svg"
   xmlns:sodipodi="http://sodipodi.sourceforge.net/DTD/sodipodi-0.dtd"
   xmlns:inkscape="http://www.inkscape.org/namespaces/inkscape"
   width="744.09448819"
   height="1052.3622047"
   id="svg3218"
   sodipodi:version="0.32"
   inkscape:version="0.46"
   sodipodi:docname="Nemesis-Turret.svg"
   inkscape:output_extension="org.inkscape.output.svg.inkscape">
  <defs
     id="defs3220">
    <inkscape:perspective
       sodipodi:type="inkscape:persp3d"
       inkscape:vp_x="0 : 526.18109 : 1"
       inkscape:vp_y="0 : 1000 : 0"
       inkscape:vp_z="744.09448 : 526.18109 : 1"
       inkscape:persp3d-origin="372.04724 : 350.78739 : 1"
       id="perspective3226" />
  </defs>
  <sodipodi:namedview
     id="base"
     pagecolor="#ffffff"
     bordercolor="#666666"
     borderopacity="1.0"
     gridtolerance="10000"
     guidetolerance="10"
     objecttolerance="10"
     inkscape:pageopacity="0.0"
     inkscape:pageshadow="2"
     inkscape:zoom="0.7"
     inkscape:cx="123.23621"
     inkscape:cy="742.99044"
     inkscape:document-units="px"
     inkscape:current-layer="layer1"
     showgrid="true"
     inkscape:snap-global="false"
     inkscape:window-width="640"
     inkscape:window-height="677"
     inkscape:window-x="208"
     inkscape:window-y="43">
    <inkscape:grid
       type="xygrid"
       id="grid3228" />
  </sodipodi:namedview>
  <metadata
     id="metadata3223">
    <rdf:RDF>
      <cc:Work
         rdf:about="">
        <dc:format>image/svg+xml</dc:format>
        <dc:type
           rdf:resource="http://purl.org/dc/dcmitype/StillImage" />
      </cc:Work>
    </rdf:RDF>
  </metadata>
  <g
     inkscape:label="Layer 1"
     inkscape:groupmode="layer"
     id="layer1">
    <circle
       cx="0"
       cy="0"
       r="180"
       id="bridge"
       style="fill:#464a71;fill-opacity:1;stroke:#000000;stroke-opacity:1;display:inline"
       sodipodi:cx="0"
       sodipodi:cy="0"
       sodipodi:rx="180"
       sodipodi:ry="180"
       transform="matrix(0.7611279,0,0,0.5389765,1.0183272,8.060166)" />
    <path
       style="fill:#333333;fill-rule:evenodd;stroke:#000000;stroke-width:1.4930371px;stroke-linecap:butt;stroke-linejoin:miter;stroke-opacity:1;display:inline"
       d="M -22.857143,-197.63782 L -22.857143,-82.784234 L 22.526467,-82.784234 L 22.526467,-197.63782 L -22.857143,-197.63782 z"
       id="barrel"
       sodipodi:nodetypes="ccccc"
       inkscape:label="#path2962" />
    <path
       style="opacity:1;fill:none;fill-opacity:1;fill-rule:nonzero;stroke:none;stroke-width:0;stroke-linecap:round;stroke-miterlimit:4;stroke-dasharray:none;stroke-dashoffset:0;stroke-opacity:1;display:inline"
       d="M 63.165737,61.573396 C 61.536907,60.379836 61.550587,60.299626 63.633837,58.829036 C 65.389967,57.589386 66.028507,57.451136 67.149137,58.067886 C 68.297017,58.699626 70.137147,57.692276 78.525967,51.839746 C 87.602787,45.507206 88.404967,44.763846 87.151897,43.845536 C 85.912277,42.937196 86.003527,42.687976 88.040127,41.419126 C 90.208197,40.068396 90.414667,40.050606 92.649587,41.021736 C 95.350497,42.195296 95.542567,42.779006 93.582777,43.857616 C 92.323977,44.550416 92.328957,44.743636 93.630267,45.697246 C 94.979867,46.686216 94.279887,47.338536 83.881647,54.782836 C 77.720197,59.193916 72.354967,62.802906 71.958887,62.802906 C 71.562827,62.802906 70.713467,62.383156 70.071447,61.870156 C 69.025257,61.034146 68.742867,61.034146 67.349967,61.870156 C 65.364727,63.061616 65.178607,63.048416 63.165747,61.573396 L 63.165737,61.573396 z"
       id="path6398" />
    <path
       style="opacity:1;fill:none;fill-opacity:1;fill-rule:nonzero;stroke:none;stroke-width:0;stroke-linecap:round;stroke-miterlimit:4;stroke-dasharray:none;stroke-dashoffset:0;stroke-opacity:1;display:inline"
       d="M -17.515233,72.893466 C -17.515233,71.670366 -17.976303,71.364606 -19.820643,71.364606 C -21.840643,71.364606 -22.126063,71.099586 -22.126063,69.224166 C -22.126063,67.134766 -22.038233,67.083786 -18.437393,67.083786 C -15.363513,67.083786 -14.748723,67.287626 -14.748723,68.306886 C -14.748723,69.477376 -14.133933,69.529986 -0.45511285,69.529986 C 13.223717,69.529986 13.838497,69.477376 13.838497,68.306886 C 13.838497,67.287626 14.453277,67.083786 17.527167,67.083786 C 21.128017,67.083786 21.215837,67.134766 21.215837,69.224166 C 21.215837,71.099586 20.930417,71.364606 18.910427,71.364606 C 17.066087,71.364606 16.605007,71.670366 16.605007,72.893466 L 16.605007,74.422376 L -0.45511285,74.422376 L -17.515233,74.422376 L -17.515233,72.893466 z"
       id="path6400" />
    <path
       style="opacity:1;fill:none;fill-opacity:1;fill-rule:nonzero;stroke:none;stroke-width:0;stroke-linecap:round;stroke-miterlimit:4;stroke-dasharray:none;stroke-dashoffset:0;stroke-opacity:1;display:inline"
       d="M -71.212193,62.400716 C -72.538263,61.521326 -72.967603,61.497346 -74.295693,62.228306 C -75.657713,62.977906 -76.176723,62.816166 -78.722273,60.848576 C -80.308293,59.622736 -85.425543,55.892206 -90.093953,52.558526 C -98.052843,46.875236 -98.485133,46.433116 -97.028243,45.466996 C -95.701533,44.587176 -95.652513,44.247566 -96.692773,43.142926 C -97.757713,42.012096 -97.660913,41.686186 -95.923503,40.553736 L -93.935983,39.258146 L -91.734743,41.065826 C -90.068973,42.433686 -89.781193,43.071296 -90.551693,43.687026 C -91.324583,44.304636 -91.022873,44.900366 -89.299113,46.160276 C -88.050203,47.073096 -83.781793,50.231066 -79.813753,53.178136 C -73.920633,57.554836 -72.358633,58.403996 -71.286153,57.813716 C -70.237893,57.236736 -69.476733,57.420256 -67.510983,58.723886 L -65.048803,60.356716 L -67.360213,61.889506 C -69.519713,63.321666 -69.772883,63.355246 -71.212193,62.400716 L -71.212193,62.400716 z"
       id="path6402" />
    <path
       style="fill:#ff0000;fill-opacity:1;fill-rule:evenodd;stroke:#000000;stroke-width:1.8252486px;stroke-linecap:butt;stroke-linejoin:miter;stroke-opacity:1;display:inline"
       d="M -32.546003,68.913236 L -33.566473,77.159626 L -26.178643,77.212876 L -26.781683,82.328406 L 27.204107,82.053096 L 27.770787,77.474556 L 34.699067,77.484416 L 35.294057,68.679046 L 21.932237,68.659916 L 21.409077,72.886296 L -19.622573,72.475546 L -19.186873,68.953596 L -32.546003,68.913236 z"
       id="path2498"
       sodipodi:nodetypes="ccccccccccccc" />
    <path
       style="fill:#ff0000;fill-opacity:1;fill-rule:evenodd;stroke:#000000;stroke-width:1.8252486px;stroke-linecap:butt;stroke-linejoin:miter;stroke-opacity:1;display:inline"
       d="M 53.684357,61.538846 L 62.550567,66.933896 L 66.919087,62.714626 L 72.436497,66.044146 L 103.59645,34.824796 L 98.673797,31.829276 L 102.72458,27.849086 L 92.968967,22.372876 L 85.156557,30.048976 L 89.700557,32.814136 L 65.306337,56.180776 L 61.519587,53.876706 L 53.684357,61.538846 z"
       id="path2500"
       sodipodi:nodetypes="ccccccccccccc" />
    <path
       style="fill:#ff0000;fill-opacity:1;fill-rule:evenodd;stroke:#000000;stroke-width:1.8252486px;stroke-linecap:butt;stroke-linejoin:miter;stroke-opacity:1;display:inline"
       d="M -98.873243,22.533436 L -107.87808,27.812116 L -102.74179,31.572826 L -108.3067,34.862416 L -70.105803,61.876466 L -65.106063,58.945666 L -60.248963,62.444276 L -50.981243,56.558486 L -60.348483,49.811046 L -64.963723,52.516386 L -93.375033,31.549006 L -89.529263,29.294466 L -98.873243,22.533436 z"
       id="path5204"
       sodipodi:nodetypes="ccccccccccccc" />
    <path
       style="fill:#ff0000;fill-rule:evenodd;stroke:#000000;stroke-width:1.9724648px;stroke-linecap:butt;stroke-linejoin:miter;stroke-opacity:1;display:inline"
       d="M -22.677673,-198.4367 L 22.186487,-198.61527 L 22.206867,-213.53202 L -22.698063,-213.61954 L -22.677673,-198.4367 z"
       id="path5210"
       sodipodi:nodetypes="ccccc" />
    <path
       style="fill:#333333;fill-opacity:1;fill-rule:evenodd;stroke:#000000;stroke-width:1.16070211px;stroke-linecap:butt;stroke-linejoin:miter;stroke-opacity:1;display:inline"
       d="M -22.879273,-112.38018 L -54.830783,-82.109944 L -22.879273,-82.109944 L -22.879273,-112.38018 z"
       id="lBase"
       sodipodi:nodetypes="cccc"
       inkscape:label="#path3736" />
    <path
       style="fill:#333333;fill-opacity:1;fill-rule:evenodd;stroke:#000000;stroke-width:1.16070211px;stroke-linecap:butt;stroke-linejoin:miter;stroke-opacity:1;display:inline"
       d="M 23.786197,-112.43263 L 55.737697,-82.162394 L 23.786197,-82.162394 L 23.786197,-112.43263 z"
       id="rBase"
       sodipodi:nodetypes="cccc"
       inkscape:label="#path3734" />
  </g>
</svg>
